<svg class="main-svg" xmlns="http://www.w3.org/2000/svg" xmlns:xlink="http://www.w3.org/1999/xlink" width="700" height="500" style="" viewBox="0 0 700 500"><rect x="0" y="0" width="700" height="500" style="fill: rgb(255, 255, 255); fill-opacity: 1;"/><defs id="defs-ff463a"><g class="clips"><clipPath id="clipff463axyplot" class="plotclip"><rect width="540" height="360"/></clipPath><clipPath class="axesclip" id="clipff463ax"><rect x="80" y="0" width="540" height="500"/></clipPath><clipPath class="axesclip" id="clipff463ay"><rect x="0" y="60" width="700" height="360"/></clipPath><clipPath class="axesclip" id="clipff463axy"><rect x="80" y="60" width="540" height="360"/></clipPath></g><g class="gradients"/><g class="patterns"/></defs><g class="bglayer"><rect class="bg" x="80" y="60" width="540" height="360" style="fill: rgb(229, 236, 246); fill-opacity: 1; stroke-width: 0;"/></g><g class="layer-below"><g class="imagelayer"/><g class="shapelayer"/></g><g class="cartesianlayer"><g class="subplot xy"><g class="layer-subplot"><g class="shapelayer"/><g class="imagelayer"/></g><g class="minor-gridlayer"><g class="x"/><g class="y"/></g><g class="gridlayer"><g class="x"><path class="xgrid crisp" transform="translate(188.22,0)" d="M0,60v360" style="stroke: rgb(255, 255, 255); stroke-opacity: 1; stroke-width: 1px;"/><path class="xgrid crisp" transform="translate(296.43,0)" d="M0,60v360" style="stroke: rgb(255, 255, 255); stroke-opacity: 1; stroke-width: 1px;"/><path class="xgrid crisp" transform="translate(404.65,0)" d="M0,60v360" style="stroke: rgb(255, 255, 255); stroke-opacity: 1; stroke-width: 1px;"/><path class="xgrid crisp" transform="translate(512.87,0)" d="M0,60v360" style="stroke: rgb(255, 255, 255); stroke-opacity: 1; stroke-width: 1px;"/></g><g class="y"><path class="ygrid crisp" transform="translate(0,340.89)" d="M80,0h540" style="stroke: rgb(255, 255, 255); stroke-opacity: 1; stroke-width: 1px;"/><path class="ygrid crisp" transform="translate(0,274.47)" d="M80,0h540" style="stroke: rgb(255, 255, 255); stroke-opacity: 1; stroke-width: 1px;"/><path class="ygrid crisp" transform="translate(0,208.05)" d="M80,0h540" style="stroke: rgb(255, 255, 255); stroke-opacity: 1; stroke-width: 1px;"/><path class="ygrid crisp" transform="translate(0,141.63)" d="M80,0h540" style="stroke: rgb(255, 255, 255); stroke-opacity: 1; stroke-width: 1px;"/><path class="ygrid crisp" transform="translate(0,75.21000000000001)" d="M80,0h540" style="stroke: rgb(255, 255, 255); stroke-opacity: 1; stroke-width: 1px;"/></g></g><g class="zerolinelayer"><path class="xzl zl crisp" transform="translate(80,0)" d="M0,60v360" style="stroke: rgb(255, 255, 255); stroke-opacity: 1; stroke-width: 2px;"/><path class="yzl zl crisp" transform="translate(0,407.31)" d="M80,0h540" style="stroke: rgb(255, 255, 255); stroke-opacity: 1; stroke-width: 2px;"/></g><g class="layer-between"><g class="shapelayer"/><g class="imagelayer"/></g><path class="xlines-below"/><path class="ylines-below"/><g class="overlines-below"/><g class="xaxislayer-below"/><g class="yaxislayer-below"/><g class="overaxes-below"/><g class="overplot"><g class="xy" transform="translate(80,60)" clip-path="url(#clipff463axyplot)"><g class="scatterlayer mlayer"><g class="trace scatter trace21077b" style="stroke-miterlimit: 2; opacity: 1;"><g class="fills"/><g class="errorbars"/><g class="lines"><path class="js-line" d="M0,317.96L1.08,335.49L1.62,341.34L3.25,342L3.79,330.31L4.87,327.52L5.41,329.25L6.49,325.13L7.03,213.14L7.58,336.29L8.12,336.02L8.66,334.43L9.2,338.55L9.74,338.41L10.28,338.41L11.36,313.97L11.9,319.95L12.44,319.02L12.99,315.7L13.53,318.35L14.07,315.43L15.15,316.36L15.69,314.9L16.23,314.63L16.77,313.31L17.86,312.51L18.4,310.38L19.48,310.78L20.02,308.39L20.56,200.79L21.1,305.07L22.18,325.66L22.73,298.69L23.27,307.06L23.81,303.61L24.35,301.08L24.89,323.67L25.43,304.01L25.97,329.51L27.05,329.38L27.6,319.28L28.14,327.65L28.68,303.48L29.22,326.59L29.76,277.44L30.3,305.6L30.84,304.67L31.38,306.53L33.55,301.75L34.09,297.9L34.63,328.58L35.17,302.15L35.71,301.62L36.25,302.28L36.79,303.74L37.33,302.41L38.42,304.54L38.96,301.75L40.04,310.92L40.58,312.11L41.66,310.52L42.2,306.66L43.83,310.52L44.37,307.59L44.91,310.12L45.45,309.72L45.99,311.45L46.53,308.92L47.07,309.99L49.24,310.52L49.78,309.06L50.86,309.99L51.4,309.59L51.94,310.52L52.48,309.45L54.65,310.52L55.19,308.39L55.73,307.99L56.27,309.72L56.81,307.73L57.35,310.52L58.44,310.12L58.98,311.18L59.52,310.78L60.06,288.86L61.14,310.25L61.68,309.59L62.22,309.59L62.77,310.38L63.31,309.59L63.85,292.18L64.39,309.45L64.93,309.19L65.47,308.52L66.01,309.45L66.55,309.06L67.09,307.86L68.18,310.25L68.72,310.25L69.26,310.78L69.8,309.85L70.34,310.12L70.88,291.65L71.42,310.78L71.96,310.65L72.51,310.52L73.05,309.99L73.59,310.92L74.67,310.25L75.21,310.12L75.75,311.31L76.29,310.78L76.83,272.52L77.37,307.59L77.92,306.66L78.46,310.38L79,308.13L79.54,309.06L80.08,309.99L80.62,309.99L81.16,310.78L82.24,309.59L82.79,309.85L83.33,309.85L83.87,310.78L84.95,307.73L85.49,309.32L86.03,309.45L86.57,310.92L87.11,310.78L87.66,308.52L88.2,309.85L88.74,308.92L89.28,307.46L89.82,309.45L90.36,309.99L90.9,308.66L91.98,310.78L92.53,309.06L93.07,309.72L93.61,308.79L94.15,292.18L94.69,309.32L95.23,310.12L95.77,309.45L96.31,311.18L96.85,310.38L98.48,309.45L99.02,310.52L99.56,309.99L100.1,308.26L100.64,310.65L101.18,307.86L101.72,307.99L102.26,310.52L102.81,308.79L103.35,287.8L103.89,323.67L104.43,308.79L105.51,311.05L106.05,310.52L106.59,309.19L107.13,309.72L107.68,309.45L108.22,308.66L108.76,309.85L109.3,309.45L109.84,310.25L110.92,308.92L111.46,310.25L112,310.65L112.55,309.59L113.09,308.52L113.63,309.99L115.25,309.99L115.79,308.92L116.33,309.85L116.87,309.45L117.41,308.66L118.5,308.52L119.04,309.19L119.58,308.66L120.12,309.85L121.2,309.72L121.74,279.83L122.83,298.03L123.37,299.09L124.45,300.15L124.99,282.49L125.53,300.82L126.07,297.9L126.61,298.43L127.15,299.09L127.7,298.43L129.32,300.55L129.86,297.23L130.4,299.36L130.94,298.03L131.48,298.83L132.02,298.3L132.57,299.09L133.11,300.02L133.65,298.56L134.73,299.76L135.27,299.23L135.81,298.3L136.35,299.36L138.52,299.62L139.06,299.23L139.6,300.69L140.14,305.2L140.68,289.26L141.22,295.11L141.76,298.69L142.85,300.55L143.39,281.69L143.93,300.55L144.47,300.42L145.01,300.42L145.55,298.3L146.09,299.62L147.72,300.82L148.26,300.95L149.34,300.42L149.88,270.66L150.42,300.82L150.96,300.02L151.5,300.15L152.04,301.08L152.59,300.29L153.67,300.02L154.21,301.08L154.75,300.55L155.29,311.58L155.83,297.9L156.37,299.76L156.91,300.42L158,299.89L158.54,299.36L159.08,309.99L159.62,296.57L160.7,299.23L161.24,298.16L162.32,299.62L162.87,299.23L163.95,299.62L164.49,298.83L165.03,314.77L165.57,299.23L166.65,298.69L167.19,299.36L167.74,18L168.28,297.23L168.82,299.76L169.36,298.83L169.9,299.36L170.44,297.1L170.98,300.55L171.52,300.69L172.06,299.36L172.61,305.73L173.15,300.69L174.23,307.33L174.77,308.66L176.39,309.72L176.93,309.72L178.56,309.59L179.1,310.52L179.64,310.92L180.18,309.85L180.72,309.19L181.26,288.2L182.34,310.25L182.89,309.99L184.51,310.25L185.05,309.99L186.13,310.52L186.67,311.45L187.21,308.66L187.76,309.99L188.3,309.06L188.84,310.25L189.38,310.25L189.92,309.32L190.46,310.12L191,309.19L192.08,309.06L192.63,309.99L193.71,307.2L194.25,309.45L195.87,308.52L196.41,309.32L197.49,307.73L198.04,309.06L199.12,307.73L199.66,308.79L200.2,310.78L200.74,309.72L201.28,309.19L201.82,310.78L202.36,309.59L202.91,309.85L203.45,309.85L204.53,310.52L205.07,309.72L206.15,309.59L206.69,305.34L207.78,309.19L208.32,308.92L208.86,310.12L209.4,300.29L210.48,309.99L211.02,309.85L212.65,310.52L213.19,309.72L214.27,310.65L214.81,310.52L215.89,309.06L216.43,311.18L216.97,309.59L217.52,310.52L218.6,311.18L219.14,310.38L219.68,290.72L220.22,310.25L220.76,308.52L221.3,309.85L221.84,308.13L222.38,309.59L222.93,309.19L223.47,309.85L225.09,309.06L225.63,306.93L226.17,310.25L226.71,309.72L227.25,310.65L227.8,309.99L228.34,287.54L228.88,310.12L229.42,309.32L229.96,310.12L230.5,309.19L231.04,274.25L232.12,308.66L232.67,310.12L233.21,309.59L233.75,287.54L234.29,309.59L234.83,308.66L235.37,263.23L235.91,308.79L236.45,308.52L236.99,309.85L237.54,308.52L238.08,310.25L240.24,310.38L240.78,309.06L241.32,320.08L241.86,303.74L242.4,299.76L242.95,305.47L244.03,307.99L244.57,309.06L246.19,310.65L246.73,309.19L247.27,310.25L247.82,309.72L248.36,309.99L248.9,310.38L249.44,309.59L250.52,309.45L251.06,308.79L251.6,285.68L252.14,306.93L252.69,309.45L253.23,309.06L253.77,307.33L254.85,309.99L255.39,309.32L256.47,309.06L257.01,308.92L257.56,308.66L258.1,309.72L258.64,310.12L259.18,308.66L260.8,310.92L261.34,309.59L261.88,301.88L262.42,308.92L262.97,308.39L263.51,310.38L264.05,309.72L264.59,310.25L265.67,308.39L266.21,310.12L266.75,308.39L267.29,309.99L267.84,310.65L268.38,308.13L269.46,309.85L270,309.59L271.08,309.45L271.62,307.73L272.16,310.52L272.71,307.06L273.79,308.79L274.33,307.46L275.41,309.32L275.95,309.85L276.49,309.85L277.03,308.66L278.12,308.39L278.66,308.92L280.28,308.26L280.82,310.38L281.36,310.25L281.9,308.26L282.44,311.18L282.99,281.56L284.07,309.59L284.61,309.45L285.15,310.52L285.69,309.59L287.86,310.12L288.4,309.19L289.48,309.06L290.02,310.38L291.1,308.39L291.64,309.19L293.81,309.19L294.35,294.97L295.43,299.49L295.97,300.02L297.05,299.89L297.6,299.89L298.14,299.36L298.68,300.15L299.22,300.29L299.76,243.17L300.84,298.69L301.38,299.36L301.92,300.55L302.46,300.15L303.01,298.3L304.09,300.29L304.63,298.43L306.25,299.76L306.79,299.62L308.42,299.89L308.96,299.76L309.5,299.76L310.04,297.5L310.58,300.15L311.12,300.02L311.66,300.29L312.2,299.76L312.75,300.69L313.29,288.73L313.83,297.5L315.45,300.29L315.99,300.55L317.07,301.22L317.62,299.09L318.16,300.69L318.7,299.76L319.78,300.15L320.32,300.15L320.86,299.49L321.4,300.15L321.94,299.23L322.48,306.66L323.57,308.79L324.11,269.87L324.65,269.07L325.19,157.35L326.27,298.83L326.81,299.36L327.35,300.55L327.9,298.96L328.98,300.29L329.52,155.36L330.6,298.16L331.14,299.36L332.22,299.36L332.77,270.93L333.31,299.76L333.85,299.09L334.39,298.16L334.93,277.97L335.47,298.69L337.09,300.15L337.64,299.23L338.18,296.04L338.72,299.62L340.34,300.02L340.88,299.23L341.42,299.49L341.96,281.82L343.05,300.15L343.59,299.49L344.13,281.42L344.67,300.82L345.75,299.76L346.29,300.69L347.37,299.62L347.92,299.49L348.46,278.37L349,299.62L350.08,300.02L350.62,299.36L351.16,300.29L351.7,298.16L352.24,301.62L352.79,300.95L353.33,298.69L353.87,301.22L354.41,299.89L354.95,279.3L355.49,300.82L356.03,299.23L356.57,300.69L357.11,299.62L357.66,306.66L359.28,310.38L359.82,309.72L360.9,307.2L361.44,308.79L361.98,307.86L362.53,309.72L363.07,288.86L363.61,309.32L364.15,309.32L364.69,310.38L365.77,310.38L366.31,307.2L366.85,309.32L367.39,306.66L367.94,279.7L368.48,309.45L369.56,308.13L370.1,309.06L370.64,308.52L371.18,309.72L371.72,310.12L372.26,308.39L372.81,309.99L373.35,309.72L373.89,310.25L374.43,309.72L374.97,289L375.51,309.85L376.05,309.59L376.59,309.85L377.13,310.52L377.68,286.07L378.76,312.24L379.3,316.23L379.84,310.38L380.38,323.4L381.46,302.55L382,309.19L383.63,309.85L384.17,308.13L385.25,310.12L385.79,309.45L386.87,308.92L387.41,310.52L388.5,308.13L389.04,309.19L390.12,310.78L390.66,307.59L391.74,309.85L392.28,308.92L393.91,308.92L394.45,307.06L395.53,309.72L396.07,287.93L397.15,311.45L397.7,309.85L398.24,309.85L398.78,308.92L399.86,309.59L400.4,291.92L400.94,309.85L401.48,309.06L402.02,310.25L402.57,311.18L403.11,309.85L404.19,310.25L404.73,310.12L405.27,289.93L405.81,309.45L406.89,309.59L407.43,308.26L408.52,310.52L409.06,309.85L410.14,309.19L410.68,311.05L412.3,308.52L412.85,310.25L413.93,310.12L414.47,310.12L416.63,309.85L417.17,309.32L417.72,310.92L418.26,310.25L418.8,308.66L419.34,309.99L419.88,309.32L420.42,310.38L420.96,291.79L422.04,310.12L422.59,308.66L424.21,310.65L424.75,310.65L426.37,309.59L426.91,311.18L427.45,309.45L428,287.67L429.08,310.12L429.62,310.25L430.16,307.2L430.7,308.66L431.24,309.59L431.78,308.79L432.32,310.25L432.87,309.19L433.41,310.25L433.95,309.72L434.49,310.25L435.03,309.06L435.57,309.72L436.11,310.52L436.65,309.72L437.19,289.39L437.74,310.38L438.28,308.92L438.82,292.45L439.36,311.18L439.9,310.12L440.44,309.72L440.98,309.85L441.52,308.92L442.06,309.99L442.61,305.87L443.69,310.52L444.23,309.99L444.77,311.45L445.31,310.65L446.39,309.85L446.93,313.84L448.56,330.31L449.1,299.89L450.18,299.09L450.72,298.16L451.26,244.76L451.8,294.58L452.34,316.1L452.89,307.86L453.43,304.01L453.97,293.25L454.51,310.52L455.05,298.69L455.59,316.49L456.13,294.31L457.76,307.46L458.3,297.76L459.38,332.7L459.92,299.76L460.46,298.03L461,287.4L461.54,306.66L462.08,252.07L463.17,307.73L463.71,307.06L464.25,227.76L464.79,323L465.33,319.82L465.87,284.21L467.49,297.9L468.04,298.56L468.58,322.74L469.12,310.92L469.66,295.51L470.2,319.42L471.82,266.28L472.36,322.87L472.91,323.8L473.45,316.49L473.99,326.19L474.53,293.25L475.61,297.5L476.15,173.16L476.69,297.9L477.23,297.76L477.78,327.39L478.32,325.79L478.86,295.77L479.94,301.35L480.48,300.42L481.02,299.76L481.56,318.09L482.1,300.29L482.65,322.87L483.19,322.74L483.73,324.46L484.27,320.88L484.81,328.85L485.35,298.43L485.89,298.56L486.43,298.69L486.97,298.56L487.52,302.28L488.06,328.58L488.6,290.86L489.68,297.5L490.22,298.16L491.3,298.56L491.84,324.07L492.38,328.72L492.93,312.91L493.47,307.86L494.01,325.39L494.55,318.75L495.09,296.57L495.63,300.69L496.17,291.39L497.8,327.52L498.34,326.72L499.96,275.98L500.5,298.56L501.04,299.23L501.58,298.43L502.67,332.3L503.21,297.23L504.29,295.11L504.83,297.76L505.91,324.86L506.45,329.38L506.99,332.3L507.54,319.95L508.08,324.2L508.62,288.07L509.16,262.16L509.7,298.69L510.24,298.56L510.78,299.62L511.32,299.62L511.86,321.81L512.4,324.86L512.95,296.57L513.49,299.76L514.03,299.09L514.57,274.92L515.65,300.15L516.19,308.26L516.73,190.43L517.27,294.97L517.82,328.45L518.36,296.97L518.9,292.05L519.44,299.23L519.98,326.46L520.52,316.49L521.06,298.69L521.6,297.5L522.14,297.76L522.69,297.37L523.23,300.15L523.77,298.16L524.31,290.06L524.85,321.41L525.39,294.31L525.93,322.21L526.47,323.67L527.01,322.34L528.1,317.56L528.64,322.07L529.72,296.3L530.26,296.44L530.8,299.09L531.34,296.7L531.88,298.83L533.51,299.76L534.05,298.43L534.59,311.18L535.13,295.11L536.21,299.62L536.75,299.23L537.29,322.07L537.84,320.88L538.38,290.19L539.46,297.5L540,288.2" style="vector-effect: none; fill: none; stroke: rgb(99, 110, 250); stroke-opacity: 1; stroke-width: 2px; opacity: 1;"/></g><g class="points"/><g class="text"/></g></g></g></g><path class="xlines-above crisp" d="M0,0" style="fill: none;"/><path class="ylines-above crisp" d="M0,0" style="fill: none;"/><g class="overlines-above"/><g class="xaxislayer-above"><g class="xtick"><text text-anchor="middle" x="0" y="433" transform="translate(80,0)" style="font-family: 'Open Sans', verdana, arial, sans-serif; font-size: 12px; fill: rgb(42, 63, 95); fill-opacity: 1; white-space: pre; opacity: 1;">0</text></g><g class="xtick"><text text-anchor="middle" x="0" y="433" style="font-family: 'Open Sans', verdana, arial, sans-serif; font-size: 12px; fill: rgb(42, 63, 95); fill-opacity: 1; white-space: pre; opacity: 1;" transform="translate(188.22,0)">200</text></g><g class="xtick"><text text-anchor="middle" x="0" y="433" style="font-family: 'Open Sans', verdana, arial, sans-serif; font-size: 12px; fill: rgb(42, 63, 95); fill-opacity: 1; white-space: pre; opacity: 1;" transform="translate(296.43,0)">400</text></g><g class="xtick"><text text-anchor="middle" x="0" y="433" style="font-family: 'Open Sans', verdana, arial, sans-serif; font-size: 12px; fill: rgb(42, 63, 95); fill-opacity: 1; white-space: pre; opacity: 1;" transform="translate(404.65,0)">600</text></g><g class="xtick"><text text-anchor="middle" x="0" y="433" style="font-family: 'Open Sans', verdana, arial, sans-serif; font-size: 12px; fill: rgb(42, 63, 95); fill-opacity: 1; white-space: pre; opacity: 1;" transform="translate(512.87,0)">800</text></g></g><g class="yaxislayer-above"><g class="ytick"><text text-anchor="end" x="79" y="4.199999999999999" transform="translate(0,407.31)" style="font-family: 'Open Sans', verdana, arial, sans-serif; font-size: 12px; fill: rgb(42, 63, 95); fill-opacity: 1; white-space: pre; opacity: 1;">0</text></g><g class="ytick"><text text-anchor="end" x="79" y="4.199999999999999" style="font-family: 'Open Sans', verdana, arial, sans-serif; font-size: 12px; fill: rgb(42, 63, 95); fill-opacity: 1; white-space: pre; opacity: 1;" transform="translate(0,340.89)">50k</text></g><g class="ytick"><text text-anchor="end" x="79" y="4.199999999999999" style="font-family: 'Open Sans', verdana, arial, sans-serif; font-size: 12px; fill: rgb(42, 63, 95); fill-opacity: 1; white-space: pre; opacity: 1;" transform="translate(0,274.47)">100k</text></g><g class="ytick"><text text-anchor="end" x="79" y="4.199999999999999" style="font-family: 'Open Sans', verdana, arial, sans-serif; font-size: 12px; fill: rgb(42, 63, 95); fill-opacity: 1; white-space: pre; opacity: 1;" transform="translate(0,208.05)">150k</text></g><g class="ytick"><text text-anchor="end" x="79" y="4.199999999999999" style="font-family: 'Open Sans', verdana, arial, sans-serif; font-size: 12px; fill: rgb(42, 63, 95); fill-opacity: 1; white-space: pre; opacity: 1;" transform="translate(0,141.63)">200k</text></g><g class="ytick"><text text-anchor="end" x="79" y="4.199999999999999" style="font-family: 'Open Sans', verdana, arial, sans-serif; font-size: 12px; fill: rgb(42, 63, 95); fill-opacity: 1; white-space: pre; opacity: 1;" transform="translate(0,75.21000000000001)">250k</text></g></g><g class="overaxes-above"/></g></g><g class="polarlayer"/><g class="smithlayer"/><g class="ternarylayer"/><g class="geolayer"/><g class="funnelarealayer"/><g class="pielayer"/><g class="iciclelayer"/><g class="treemaplayer"/><g class="sunburstlayer"/><g class="glimages"/><defs id="topdefs-ff463a"><g class="clips"/></defs><g class="layer-above"><g class="imagelayer"/><g class="shapelayer"/></g><g class="infolayer"><g class="g-gtitle"/><g class="g-xtitle"><text class="xtitle" x="350" y="460.3" text-anchor="middle" style="opacity: 1; font-family: 'Open Sans', verdana, arial, sans-serif; font-size: 14px; fill: rgb(42, 63, 95); fill-opacity: 1; white-space: pre;">edge</text></g><g class="g-ytitle"><text class="ytitle" transform="rotate(-90,29.6,240)" x="29.6" y="240" text-anchor="middle" style="opacity: 1; font-family: 'Open Sans', verdana, arial, sans-serif; font-size: 14px; fill: rgb(42, 63, 95); fill-opacity: 1; white-space: pre;">time [ns]</text></g></g></svg>