<svg class="main-svg" xmlns="http://www.w3.org/2000/svg" xmlns:xlink="http://www.w3.org/1999/xlink" width="700" height="500" style="" viewBox="0 0 700 500"><rect x="0" y="0" width="700" height="500" style="fill: rgb(255, 255, 255); fill-opacity: 1;"/><defs id="defs-9969fd"><g class="clips"><clipPath id="clip9969fdxyplot" class="plotclip"><rect width="540" height="360"/></clipPath><clipPath class="axesclip" id="clip9969fdx"><rect x="80" y="0" width="540" height="500"/></clipPath><clipPath class="axesclip" id="clip9969fdy"><rect x="0" y="60" width="700" height="360"/></clipPath><clipPath class="axesclip" id="clip9969fdxy"><rect x="80" y="60" width="540" height="360"/></clipPath></g><g class="gradients"/><g class="patterns"/></defs><g class="bglayer"><rect class="bg" x="80" y="60" width="540" height="360" style="fill: rgb(229, 236, 246); fill-opacity: 1; stroke-width: 0;"/></g><g class="layer-below"><g class="imagelayer"/><g class="shapelayer"/></g><g class="cartesianlayer"><g class="subplot xy"><g class="layer-subplot"><g class="shapelayer"/><g class="imagelayer"/></g><g class="minor-gridlayer"><g class="x"/><g class="y"/></g><g class="gridlayer"><g class="x"><path class="xgrid crisp" transform="translate(188.11,0)" d="M0,60v360" style="stroke: rgb(255, 255, 255); stroke-opacity: 1; stroke-width: 1px;"/><path class="xgrid crisp" transform="translate(296.22,0)" d="M0,60v360" style="stroke: rgb(255, 255, 255); stroke-opacity: 1; stroke-width: 1px;"/><path class="xgrid crisp" transform="translate(404.32,0)" d="M0,60v360" style="stroke: rgb(255, 255, 255); stroke-opacity: 1; stroke-width: 1px;"/><path class="xgrid crisp" transform="translate(512.4300000000001,0)" d="M0,60v360" style="stroke: rgb(255, 255, 255); stroke-opacity: 1; stroke-width: 1px;"/></g><g class="y"><path class="ygrid crisp" transform="translate(0,385.29)" d="M80,0h540" style="stroke: rgb(255, 255, 255); stroke-opacity: 1; stroke-width: 1px;"/><path class="ygrid crisp" transform="translate(0,346.61)" d="M80,0h540" style="stroke: rgb(255, 255, 255); stroke-opacity: 1; stroke-width: 1px;"/><path class="ygrid crisp" transform="translate(0,307.93)" d="M80,0h540" style="stroke: rgb(255, 255, 255); stroke-opacity: 1; stroke-width: 1px;"/><path class="ygrid crisp" transform="translate(0,269.24)" d="M80,0h540" style="stroke: rgb(255, 255, 255); stroke-opacity: 1; stroke-width: 1px;"/><path class="ygrid crisp" transform="translate(0,230.56)" d="M80,0h540" style="stroke: rgb(255, 255, 255); stroke-opacity: 1; stroke-width: 1px;"/><path class="ygrid crisp" transform="translate(0,191.88)" d="M80,0h540" style="stroke: rgb(255, 255, 255); stroke-opacity: 1; stroke-width: 1px;"/><path class="ygrid crisp" transform="translate(0,153.2)" d="M80,0h540" style="stroke: rgb(255, 255, 255); stroke-opacity: 1; stroke-width: 1px;"/><path class="ygrid crisp" transform="translate(0,114.52000000000001)" d="M80,0h540" style="stroke: rgb(255, 255, 255); stroke-opacity: 1; stroke-width: 1px;"/><path class="ygrid crisp" transform="translate(0,75.83)" d="M80,0h540" style="stroke: rgb(255, 255, 255); stroke-opacity: 1; stroke-width: 1px;"/></g></g><g class="zerolinelayer"><path class="xzl zl crisp" transform="translate(80,0)" d="M0,60v360" style="stroke: rgb(255, 255, 255); stroke-opacity: 1; stroke-width: 2px;"/></g><g class="layer-between"><g class="shapelayer"/><g class="imagelayer"/></g><path class="xlines-below"/><path class="ylines-below"/><g class="overlines-below"/><g class="xaxislayer-below"/><g class="yaxislayer-below"/><g class="overaxes-below"/><g class="overplot"><g class="xy" transform="translate(80,60)" clip-path="url(#clip9969fdxyplot)"><g class="scatterlayer mlayer"><g class="trace scatter trace612c29" style="stroke-miterlimit: 2; opacity: 1;"><g class="fills"/><g class="errorbars"/><g class="lines"><path class="js-line" d="M0,342L1.08,318.79L1.62,315.7L2.16,311.67L2.7,301.77L4.86,288.15L5.41,269.9L10.81,238.02L11.35,231.83L12.43,194.39L12.97,189.44L17.3,163.75L17.84,158.49L22.7,128.48L23.24,67.51L24.32,63.49L24.86,63.49L33.51,63.49L34.05,59.47L36.22,53.9L36.76,53.9L37.3,53.9L37.84,52.35L38.92,51.11L39.46,51.11L41.08,48.02L41.62,43.68L44.32,29.14L44.86,29.14L48.11,29.14L48.65,30.38L50.27,27.9L50.81,27.9L51.35,29.14L51.89,27.9L67.57,27.9L68.11,26.66L71.89,26.66L72.43,27.9L74.05,25.43L74.59,25.43L75.14,26.66L75.68,25.43L80.54,25.43L81.08,26.66L91.35,26.66L91.89,25.43L92.97,24.19L93.51,24.19L101.08,24.19L101.62,25.43L102.16,22.95L102.7,24.19L103.78,22.95L104.32,22.95L104.86,22.95L105.41,24.19L106.49,22.95L107.03,24.19L107.57,22.95L108.11,24.19L108.65,24.19L109.19,22.95L110.27,24.19L110.81,24.19L114.05,24.19L114.59,22.95L115.14,21.71L115.68,22.95L116.76,21.71L117.3,21.71L117.84,21.71L118.38,22.95L118.92,21.71L119.46,22.95L120,24.19L120.54,22.95L129.73,22.95L130.27,24.19L130.81,24.19L131.35,22.95L140.54,22.95L141.08,21.71L144.86,21.71L145.41,22.95L145.95,24.19L146.49,22.95L148.11,22.95L148.65,21.71L149.73,19.24L150.27,20.48L151.35,19.24L151.89,19.24L152.43,19.24L152.97,20.48L153.51,19.24L154.05,20.48L154.59,20.48L155.14,19.24L163.78,19.24L164.32,20.48L164.86,22.95L165.41,21.71L166.49,20.48L167.03,20.48L178.38,20.48L178.92,21.71L179.46,21.71L180,22.95L180.54,24.19L181.08,22.95L182.7,22.95L183.24,21.71L184.32,19.24L184.86,20.48L185.95,19.24L186.49,19.24L187.03,19.24L187.57,20.48L188.11,19.24L188.65,20.48L189.19,21.71L189.73,20.48L198.38,20.48L198.92,21.71L200,22.95L200.54,21.71L209.73,21.71L210.27,20.48L214.05,20.48L214.59,21.71L215.14,22.95L215.68,21.71L217.3,21.71L217.84,20.48L218.92,18L219.46,19.24L220.54,18L221.08,18L221.62,18L222.16,19.24L222.7,18L223.24,19.24L223.78,20.48L224.32,19.24L232.97,19.24L233.51,20.48L234.59,21.71L235.14,20.48L244.32,20.48L244.86,19.24L247.57,19.24L248.11,20.48L248.65,20.48L249.19,21.71L249.73,22.95L250.27,21.71L251.89,21.71L252.43,20.48L253.51,18L254.05,19.24L255.14,18L255.68,18L256.22,18L256.76,19.24L257.3,18L257.84,19.24L258.38,20.48L258.92,19.24L267.57,19.24L268.11,20.48L269.19,21.71L269.73,20.48L278.92,20.48L279.46,19.24L282.16,19.24L282.7,20.48L283.24,20.48L283.78,21.71L284.32,22.95L284.86,21.71L286.49,21.71L287.03,20.48L288.11,18L288.65,19.24L289.73,18L290.27,18L290.81,18L291.35,19.24L291.89,18L292.43,19.24L292.97,20.48L293.51,19.24L302.16,19.24L302.7,20.48L303.78,21.71L304.32,20.48L313.51,20.48L314.05,19.24L316.76,19.24L317.3,20.48L317.84,20.48L318.38,21.71L318.92,22.95L319.46,21.71L321.08,21.71L321.62,20.48L322.7,18L323.24,19.24L324.32,18L324.86,18L325.41,18L325.95,19.24L326.49,18L327.03,19.24L327.57,20.48L328.11,19.24L336.76,19.24L337.3,20.48L338.38,21.71L338.92,20.48L348.11,20.48L348.65,19.24L351.35,19.24L351.89,20.48L352.43,20.48L352.97,21.71L353.51,22.95L354.05,21.71L355.68,21.71L356.22,20.48L357.3,18L357.84,19.24L358.92,18L359.46,18L360,18L360.54,19.24L361.08,18L361.62,19.24L362.16,20.48L362.7,19.24L371.35,19.24L371.89,20.48L372.43,21.71L372.97,20.48L374.05,19.24L374.59,19.24L376.22,19.24L376.76,20.48L377.3,21.71L377.84,20.48L378.92,20.48L379.46,21.71L381.08,18L381.62,19.24L382.7,18L383.24,18L383.78,18L384.32,19.24L384.86,18L385.41,19.24L385.95,20.48L386.49,19.24L395.14,19.24L395.68,20.48L396.22,21.71L396.76,20.48L397.84,19.24L398.38,19.24L406.49,19.24L407.03,18L409.73,18L410.27,19.24L410.81,19.24L411.35,20.48L411.89,21.71L412.43,20.48L413.51,20.48L414.05,21.71L415.68,18L416.22,19.24L417.3,18L417.84,18L418.38,18L418.92,19.24L419.46,18L420,19.24L420.54,20.48L421.08,19.24L429.73,19.24L430.27,20.48L430.81,21.71L431.35,20.48L432.43,19.24L432.97,19.24L441.08,19.24L441.62,18L444.32,18L444.86,19.24L445.41,19.24L445.95,20.48L446.49,21.71L447.03,20.48L448.11,20.48L448.65,21.71L450.27,18L450.81,19.24L451.89,18L452.43,18L452.97,18L453.51,19.24L454.05,18L454.59,19.24L455.14,20.48L455.68,19.24L464.32,19.24L464.86,20.48L465.41,21.71L465.95,20.48L467.03,19.24L467.57,19.24L475.68,19.24L476.22,18L478.92,18L479.46,19.24L480,19.24L480.54,20.48L481.08,21.71L481.62,20.48L482.7,20.48L483.24,21.71L484.86,18L485.41,19.24L486.49,18L487.03,18L487.57,18L488.11,19.24L488.65,18L489.19,19.24L489.73,20.48L490.27,19.24L498.92,19.24L499.46,20.48L500,21.71L500.54,20.48L501.62,19.24L502.16,19.24L510.27,19.24L510.81,18L513.51,18L514.05,19.24L514.59,19.24L515.14,20.48L515.68,21.71L516.22,20.48L517.3,20.48L517.84,21.71L519.46,18L520,19.24L521.08,18L521.62,18L522.16,18L522.7,19.24L523.24,18L523.78,19.24L524.32,20.48L524.86,19.24L533.51,19.24L534.05,20.48L534.59,21.71L535.14,20.48L536.22,19.24L536.76,19.24L540,19.24" style="vector-effect: none; fill: none; stroke: rgb(99, 110, 250); stroke-opacity: 1; stroke-width: 2px; opacity: 1;"/></g><g class="points"/><g class="text"/></g></g></g></g><path class="xlines-above crisp" d="M0,0" style="fill: none;"/><path class="ylines-above crisp" d="M0,0" style="fill: none;"/><g class="overlines-above"/><g class="xaxislayer-above"><g class="xtick"><text text-anchor="middle" x="0" y="433" transform="translate(80,0)" style="font-family: 'Open Sans', verdana, arial, sans-serif; font-size: 12px; fill: rgb(42, 63, 95); fill-opacity: 1; white-space: pre; opacity: 1;">0</text></g><g class="xtick"><text text-anchor="middle" x="0" y="433" style="font-family: 'Open Sans', verdana, arial, sans-serif; font-size: 12px; fill: rgb(42, 63, 95); fill-opacity: 1; white-space: pre; opacity: 1;" transform="translate(188.11,0)">200</text></g><g class="xtick"><text text-anchor="middle" x="0" y="433" style="font-family: 'Open Sans', verdana, arial, sans-serif; font-size: 12px; fill: rgb(42, 63, 95); fill-opacity: 1; white-space: pre; opacity: 1;" transform="translate(296.22,0)">400</text></g><g class="xtick"><text text-anchor="middle" x="0" y="433" style="font-family: 'Open Sans', verdana, arial, sans-serif; font-size: 12px; fill: rgb(42, 63, 95); fill-opacity: 1; white-space: pre; opacity: 1;" transform="translate(404.32,0)">600</text></g><g class="xtick"><text text-anchor="middle" x="0" y="433" style="font-family: 'Open Sans', verdana, arial, sans-serif; font-size: 12px; fill: rgb(42, 63, 95); fill-opacity: 1; white-space: pre; opacity: 1;" transform="translate(512.4300000000001,0)">800</text></g></g><g class="yaxislayer-above"><g class="ytick"><text text-anchor="end" x="79" y="4.199999999999999" transform="translate(0,385.29)" style="font-family: 'Open Sans', verdana, arial, sans-serif; font-size: 12px; fill: rgb(42, 63, 95); fill-opacity: 1; white-space: pre; opacity: 1;">1000</text></g><g class="ytick"><text text-anchor="end" x="79" y="4.199999999999999" style="font-family: 'Open Sans', verdana, arial, sans-serif; font-size: 12px; fill: rgb(42, 63, 95); fill-opacity: 1; white-space: pre; opacity: 1;" transform="translate(0,346.61)">2000</text></g><g class="ytick"><text text-anchor="end" x="79" y="4.199999999999999" style="font-family: 'Open Sans', verdana, arial, sans-serif; font-size: 12px; fill: rgb(42, 63, 95); fill-opacity: 1; white-space: pre; opacity: 1;" transform="translate(0,307.93)">3000</text></g><g class="ytick"><text text-anchor="end" x="79" y="4.199999999999999" style="font-family: 'Open Sans', verdana, arial, sans-serif; font-size: 12px; fill: rgb(42, 63, 95); fill-opacity: 1; white-space: pre; opacity: 1;" transform="translate(0,269.24)">4000</text></g><g class="ytick"><text text-anchor="end" x="79" y="4.199999999999999" style="font-family: 'Open Sans', verdana, arial, sans-serif; font-size: 12px; fill: rgb(42, 63, 95); fill-opacity: 1; white-space: pre; opacity: 1;" transform="translate(0,230.56)">5000</text></g><g class="ytick"><text text-anchor="end" x="79" y="4.199999999999999" style="font-family: 'Open Sans', verdana, arial, sans-serif; font-size: 12px; fill: rgb(42, 63, 95); fill-opacity: 1; white-space: pre; opacity: 1;" transform="translate(0,191.88)">6000</text></g><g class="ytick"><text text-anchor="end" x="79" y="4.199999999999999" style="font-family: 'Open Sans', verdana, arial, sans-serif; font-size: 12px; fill: rgb(42, 63, 95); fill-opacity: 1; white-space: pre; opacity: 1;" transform="translate(0,153.2)">7000</text></g><g class="ytick"><text text-anchor="end" x="79" y="4.199999999999999" style="font-family: 'Open Sans', verdana, arial, sans-serif; font-size: 12px; fill: rgb(42, 63, 95); fill-opacity: 1; white-space: pre; opacity: 1;" transform="translate(0,114.52000000000001)">8000</text></g><g class="ytick"><text text-anchor="end" x="79" y="4.199999999999999" style="font-family: 'Open Sans', verdana, arial, sans-serif; font-size: 12px; fill: rgb(42, 63, 95); fill-opacity: 1; white-space: pre; opacity: 1;" transform="translate(0,75.83)">9000</text></g></g><g class="overaxes-above"/></g></g><g class="polarlayer"/><g class="smithlayer"/><g class="ternarylayer"/><g class="geolayer"/><g class="funnelarealayer"/><g class="pielayer"/><g class="iciclelayer"/><g class="treemaplayer"/><g class="sunburstlayer"/><g class="glimages"/><defs id="topdefs-9969fd"><g class="clips"/></defs><g class="layer-above"><g class="imagelayer"/><g class="shapelayer"/></g><g class="infolayer"><g class="g-gtitle"/><g class="g-xtitle"><text class="xtitle" x="350" y="460.3" text-anchor="middle" style="opacity: 1; font-family: 'Open Sans', verdana, arial, sans-serif; font-size: 14px; fill: rgb(42, 63, 95); fill-opacity: 1; white-space: pre;">edge</text></g><g class="g-ytitle"><text class="ytitle" transform="rotate(-90,29.084375,240)" x="29.084375" y="240" text-anchor="middle" style="opacity: 1; font-family: 'Open Sans', verdana, arial, sans-serif; font-size: 14px; fill: rgb(42, 63, 95); fill-opacity: 1; white-space: pre;">memory [B]</text></g></g></svg>