<svg class="main-svg" xmlns="http://www.w3.org/2000/svg" xmlns:xlink="http://www.w3.org/1999/xlink" width="700" height="500" style="" viewBox="0 0 700 500"><rect x="0" y="0" width="700" height="500" style="fill: rgb(255, 255, 255); fill-opacity: 1;"/><defs id="defs-32c131"><g class="clips"><clipPath id="clip32c131xyplot" class="plotclip"><rect width="540" height="360"/></clipPath><clipPath class="axesclip" id="clip32c131x"><rect x="80" y="0" width="540" height="500"/></clipPath><clipPath class="axesclip" id="clip32c131y"><rect x="0" y="60" width="700" height="360"/></clipPath><clipPath class="axesclip" id="clip32c131xy"><rect x="80" y="60" width="540" height="360"/></clipPath></g><g class="gradients"/><g class="patterns"/></defs><g class="bglayer"><rect class="bg" x="80" y="60" width="540" height="360" style="fill: rgb(229, 236, 246); fill-opacity: 1; stroke-width: 0;"/></g><g class="layer-below"><g class="imagelayer"/><g class="shapelayer"/></g><g class="cartesianlayer"><g class="subplot xy"><g class="layer-subplot"><g class="shapelayer"/><g class="imagelayer"/></g><g class="minor-gridlayer"><g class="x"/><g class="y"/></g><g class="gridlayer"><g class="x"><path class="xgrid crisp" transform="translate(188.22,0)" d="M0,60v360" style="stroke: rgb(255, 255, 255); stroke-opacity: 1; stroke-width: 1px;"/><path class="xgrid crisp" transform="translate(296.43,0)" d="M0,60v360" style="stroke: rgb(255, 255, 255); stroke-opacity: 1; stroke-width: 1px;"/><path class="xgrid crisp" transform="translate(404.65,0)" d="M0,60v360" style="stroke: rgb(255, 255, 255); stroke-opacity: 1; stroke-width: 1px;"/><path class="xgrid crisp" transform="translate(512.87,0)" d="M0,60v360" style="stroke: rgb(255, 255, 255); stroke-opacity: 1; stroke-width: 1px;"/></g><g class="y"><path class="ygrid crisp" transform="translate(0,384.57)" d="M80,0h540" style="stroke: rgb(255, 255, 255); stroke-opacity: 1; stroke-width: 1px;"/><path class="ygrid crisp" transform="translate(0,344.96)" d="M80,0h540" style="stroke: rgb(255, 255, 255); stroke-opacity: 1; stroke-width: 1px;"/><path class="ygrid crisp" transform="translate(0,305.35)" d="M80,0h540" style="stroke: rgb(255, 255, 255); stroke-opacity: 1; stroke-width: 1px;"/><path class="ygrid crisp" transform="translate(0,265.75)" d="M80,0h540" style="stroke: rgb(255, 255, 255); stroke-opacity: 1; stroke-width: 1px;"/><path class="ygrid crisp" transform="translate(0,226.14)" d="M80,0h540" style="stroke: rgb(255, 255, 255); stroke-opacity: 1; stroke-width: 1px;"/><path class="ygrid crisp" transform="translate(0,186.53)" d="M80,0h540" style="stroke: rgb(255, 255, 255); stroke-opacity: 1; stroke-width: 1px;"/><path class="ygrid crisp" transform="translate(0,146.92000000000002)" d="M80,0h540" style="stroke: rgb(255, 255, 255); stroke-opacity: 1; stroke-width: 1px;"/><path class="ygrid crisp" transform="translate(0,107.31)" d="M80,0h540" style="stroke: rgb(255, 255, 255); stroke-opacity: 1; stroke-width: 1px;"/><path class="ygrid crisp" transform="translate(0,67.7)" d="M80,0h540" style="stroke: rgb(255, 255, 255); stroke-opacity: 1; stroke-width: 1px;"/></g></g><g class="zerolinelayer"><path class="xzl zl crisp" transform="translate(80,0)" d="M0,60v360" style="stroke: rgb(255, 255, 255); stroke-opacity: 1; stroke-width: 2px;"/></g><g class="layer-between"><g class="shapelayer"/><g class="imagelayer"/></g><path class="xlines-below"/><path class="ylines-below"/><g class="overlines-below"/><g class="xaxislayer-below"/><g class="yaxislayer-below"/><g class="overaxes-below"/><g class="overplot"><g class="xy" transform="translate(80,60)" clip-path="url(#clip32c131xyplot)"><g class="scatterlayer mlayer"><g class="trace scatter trace97079d" style="stroke-miterlimit: 2; opacity: 1;"><g class="fills"/><g class="errorbars"/><g class="lines"><path class="js-line" d="M0,309.52L1.62,341.21L2.16,334.87L3.79,342L4.33,334.87L4.87,336.45L5.41,335.66L5.95,336.45L6.49,322.2L7.03,316.65L7.58,331.7L8.12,333.29L8.66,332.49L9.2,326.95L9.74,312.69L10.82,306.35L11.36,267.54L11.9,300.01L12.44,294.47L12.99,311.9L13.53,311.11L14.07,306.35L14.61,315.86L15.15,314.27L15.69,308.73L16.23,315.07L16.77,250.11L17.31,314.27L17.86,311.9L18.4,311.9L18.94,307.94L19.48,309.52L20.02,308.73L20.56,307.14L21.1,303.18L22.18,305.56L22.73,286.55L23.81,303.18L24.35,304.77L26.51,304.77L27.05,305.56L27.6,303.98L28.14,306.35L28.68,302.39L29.22,304.77L29.76,307.14L30.3,305.56L30.84,304.77L31.38,305.56L32.46,306.35L33.01,303.98L34.63,299.22L35.17,302.39L36.79,304.77L37.33,273.08L38.42,303.98L38.96,281.79L40.04,295.26L40.58,290.51L41.12,292.09L41.66,263.57L42.2,284.96L42.75,270.7L44.37,291.3L44.91,258.03L45.45,292.09L45.99,291.3L46.53,290.51L47.07,291.3L47.62,290.51L49.78,290.51L50.32,289.72L51.4,291.3L51.94,287.34L53.03,284.96L53.57,284.96L54.11,288.13L54.65,287.34L55.19,284.96L55.73,287.34L56.27,284.17L56.81,281.79L57.35,284.17L57.9,282.59L58.44,284.96L58.98,284.96L59.52,286.55L60.06,285.76L60.6,249.32L61.68,283.38L62.22,284.96L62.77,284.96L63.31,284.17L63.85,283.38L64.39,221.59L65.47,282.59L66.01,283.38L66.55,278.63L67.09,279.42L67.64,279.42L68.72,281L69.26,280.21L69.8,279.42L70.34,282.59L70.88,281L71.42,281.79L71.96,281.79L72.51,280.21L73.05,281L73.59,283.38L74.13,268.33L74.67,278.63L75.21,280.21L75.75,256.44L76.83,277.83L77.37,277.04L77.92,273.87L78.46,276.25L79,279.42L79.54,278.63L80.08,278.63L80.62,281L81.16,277.04L81.7,275.46L82.24,277.04L82.79,277.83L83.33,276.25L84.41,279.42L84.95,274.67L86.57,278.63L87.11,279.42L88.2,278.63L88.74,279.42L90.36,277.83L90.9,278.63L91.98,276.25L92.53,277.83L93.07,242.19L93.61,277.83L94.15,277.83L94.69,272.29L95.77,274.67L96.31,273.87L96.85,277.83L97.39,276.25L97.94,275.46L99.02,276.25L99.56,278.63L100.1,278.63L100.64,277.83L101.18,279.42L101.72,277.04L102.26,231.1L102.81,277.83L103.35,276.25L103.89,277.83L104.43,277.83L104.97,277.04L106.05,278.63L106.59,277.04L107.13,274.67L107.68,237.43L108.22,276.25L108.76,274.67L109.3,227.93L110.38,275.46L110.92,273.08L112,275.46L112.55,274.67L113.09,269.91L113.63,273.08L114.71,274.67L115.25,273.87L115.79,273.08L116.33,273.87L116.87,273.87L117.41,270.7L117.96,273.87L118.5,273.08L119.04,273.87L119.58,275.46L120.12,273.08L120.66,273.08L121.2,241.39L122.28,278.63L122.83,276.25L123.37,277.04L123.91,276.25L124.45,274.67L124.99,275.46L125.53,275.46L126.07,274.67L126.61,277.83L127.15,275.46L128.24,275.46L128.78,273.87L129.32,272.29L129.86,273.87L130.4,276.25L130.94,274.67L131.48,273.87L132.02,277.83L132.57,273.87L133.11,276.25L134.19,274.67L134.73,275.46L135.27,274.67L135.81,277.04L136.35,275.46L136.89,247.73L137.43,276.25L137.98,274.67L138.52,275.46L139.06,274.67L139.6,276.25L140.14,272.29L140.68,274.67L141.22,270.7L141.76,241.39L142.85,273.87L143.39,273.87L143.93,273.08L144.47,274.67L145.55,276.25L146.09,273.87L146.63,273.87L147.17,274.67L147.72,273.87L148.26,276.25L148.8,275.46L149.34,278.63L149.88,277.04L150.42,243.77L150.96,278.63L151.5,277.83L152.04,277.04L152.59,276.25L153.13,277.83L153.67,277.83L154.21,278.63L155.83,275.46L156.37,274.67L156.91,276.25L157.45,274.67L158,239.02L158.54,274.67L159.08,273.87L159.62,277.04L160.7,274.67L161.24,274.67L161.78,247.73L162.32,274.67L162.87,275.46L163.41,274.67L163.95,274.67L164.49,273.08L165.57,276.25L166.11,274.67L166.65,277.04L167.19,238.22L168.28,276.25L168.82,276.25L169.36,272.29L169.9,276.25L170.44,274.67L170.98,275.46L171.52,276.25L172.06,275.46L172.61,275.46L173.15,277.04L173.69,246.15L174.23,274.67L174.77,274.67L175.31,271.5L175.85,270.7L176.39,274.67L176.93,275.46L177.47,274.67L178.02,275.46L178.56,274.67L179.1,274.67L179.64,277.83L181.26,274.67L181.8,275.46L182.34,241.39L182.89,277.83L183.43,274.67L183.97,277.04L184.51,277.04L185.05,275.46L185.59,275.46L186.13,278.63L187.76,273.08L188.3,275.46L188.84,275.46L189.38,274.67L189.92,274.67L190.46,275.46L191,275.46L191.54,276.25L192.08,276.25L192.63,275.46L193.17,275.46L193.71,276.25L194.25,276.25L194.79,275.46L195.33,273.87L195.87,275.46L196.41,277.04L196.95,275.46L197.49,272.29L198.04,274.67L198.58,270.7L199.12,274.67L200.2,273.87L200.74,274.67L201.28,276.25L201.82,274.67L202.36,274.67L202.91,276.25L203.45,276.25L203.99,275.46L204.53,274.67L205.07,275.46L206.15,275.46L206.69,276.25L207.23,274.67L207.78,18L208.86,274.67L209.4,273.87L210.48,239.02L211.02,277.83L211.56,275.46L212.1,276.25L212.65,274.67L214.27,276.25L214.81,274.67L215.35,273.87L215.89,274.67L216.43,277.83L216.97,275.46L217.52,275.46L218.06,276.25L218.6,277.04L219.14,275.46L219.68,240.6L220.22,275.46L220.76,275.46L221.3,276.25L221.84,273.87L222.38,275.46L224.01,277.04L224.55,275.46L225.09,275.46L225.63,272.29L226.17,277.04L226.71,276.25L227.25,276.25L228.34,277.83L228.88,275.46L229.42,278.63L229.96,277.04L232.12,277.04L232.67,275.46L233.21,274.67L233.75,275.46L234.29,275.46L234.83,272.29L235.91,275.46L236.45,274.67L237.54,276.25L238.08,275.46L239.16,277.04L239.7,276.25L240.24,171.68L240.78,273.87L241.86,276.25L242.4,274.67L242.95,277.04L243.49,273.87L244.03,231.89L244.57,276.25L245.11,275.46L245.65,276.25L246.19,277.04L246.73,276.25L247.82,274.67L248.36,275.46L248.9,276.25L249.44,274.67L250.52,273.87L251.06,274.67L252.14,273.87L252.69,274.67L253.23,241.39L253.77,270.7L255.39,276.25L255.93,273.08L256.47,273.08L257.01,238.22L258.1,274.67L258.64,273.87L259.18,273.87L259.72,275.46L261.34,273.87L261.88,273.87L263.51,275.46L264.05,274.67L265.13,274.67L265.67,275.46L266.75,273.87L267.29,274.67L267.84,272.29L268.38,275.46L268.92,274.67L269.46,275.46L270,277.04L270.54,276.25L271.08,275.46L271.62,273.08L272.16,276.25L272.71,242.19L273.79,274.67L274.33,273.08L275.95,277.04L276.49,275.46L277.03,274.67L277.58,277.04L279.2,270.7L279.74,270.7L280.82,272.29L281.36,270.7L281.9,267.54L282.44,272.29L282.99,271.5L283.53,273.87L284.61,271.5L285.15,272.29L285.69,243.77L286.23,271.5L286.77,272.29L287.31,234.26L287.86,274.67L288.4,271.5L288.94,273.08L289.48,273.08L290.02,272.29L292.18,272.29L292.73,273.08L293.81,270.7L294.35,272.29L294.89,273.08L295.43,272.29L295.97,271.5L296.51,272.29L297.05,272.29L297.6,271.5L298.14,271.5L298.68,274.67L299.76,274.67L300.3,273.87L301.38,277.04L301.92,275.46L303.55,273.87L304.09,197.03L304.63,212.88L305.17,262.78L306.25,273.87L306.79,273.87L308.42,273.87L308.96,274.67L309.5,275.46L310.04,272.29L310.58,275.46L311.12,270.7L311.66,267.54L312.2,277.04L313.29,272.29L313.83,275.46L314.37,275.46L314.91,277.04L315.45,277.04L315.99,278.63L316.53,280.21L317.07,277.04L317.62,278.63L318.16,282.59L319.24,278.63L319.78,279.42L320.32,278.63L320.86,279.42L322.48,284.17L323.03,281.79L323.57,282.59L324.11,281.79L324.65,282.59L325.19,246.15L325.73,281L326.27,278.63L326.81,282.59L327.35,216.04L327.9,275.46L328.44,281L328.98,280.21L329.52,280.21L330.06,281.79L330.6,281L332.22,283.38L332.77,280.21L333.31,280.21L333.85,263.57L334.39,277.04L334.93,225.55L335.47,275.46L336.01,228.72L337.64,273.87L338.18,272.29L338.72,276.25L339.26,270.7L340.34,282.59L340.88,279.42L341.42,282.59L341.96,280.21L343.05,282.59L343.59,281.79L344.13,284.17L344.67,283.38L345.21,283.38L345.75,282.59L346.29,284.17L346.83,284.17L347.37,282.59L347.92,281L348.46,284.96L349.54,282.59L350.08,283.38L350.62,283.38L351.16,282.59L351.7,277.83L352.24,283.38L353.33,284.96L353.87,284.17L354.41,285.76L354.95,284.96L356.03,283.38L356.57,283.38L357.11,285.76L357.66,284.17L358.2,284.96L358.74,284.17L359.28,265.95L359.82,282.59L360.36,280.21L360.9,283.38L361.98,284.17L362.53,284.17L363.07,282.59L363.61,284.96L364.69,284.17L365.23,284.17L365.77,284.96L366.31,277.04L366.85,282.59L367.39,281.79L367.94,281.79L368.48,281L369.02,283.38L369.56,277.04L370.1,183.56L371.72,275.46L372.26,278.63L372.81,222.38L373.35,275.46L373.89,222.38L374.43,277.04L375.51,285.76L376.05,284.17L376.59,285.76L377.13,280.21L378.22,281.79L378.76,284.17L380.38,287.34L380.92,288.13L381.46,286.55L382,287.34L383.09,289.72L383.63,284.96L385.25,288.92L385.79,287.34L386.33,285.76L386.87,286.55L387.96,290.51L388.5,291.3L390.12,285.76L390.66,281L391.2,286.55L391.74,227.93L392.83,277.04L393.37,285.76L393.91,258.03L394.45,282.59L394.99,291.3L395.53,289.72L396.07,289.72L397.15,290.51L397.7,261.2L398.24,292.09L398.78,290.51L399.32,290.51L400.4,290.51L400.94,289.72L401.48,261.2L402.02,292.09L403.65,287.34L404.19,288.13L404.73,290.51L405.27,289.72L405.81,291.3L406.35,276.25L406.89,281L407.43,275.46L407.98,282.59L408.52,259.61L409.06,288.92L409.6,288.13L410.14,288.92L410.68,284.96L411.22,290.51L412.3,283.38L412.85,284.96L413.39,284.96L413.93,286.55L414.47,287.34L415.01,264.37L416.09,288.13L416.63,288.13L417.17,246.15L417.72,285.76L418.8,284.17L419.34,288.92L420.42,290.51L420.96,289.72L422.04,289.72L422.59,288.13L423.13,290.51L423.67,289.72L424.21,288.92L424.75,286.55L425.29,277.83L425.83,265.16L426.37,289.72L427.45,288.92L428,246.94L429.08,288.13L429.62,289.72L430.16,285.76L430.7,287.34L431.24,286.55L432.32,303.18L432.87,304.77L433.41,302.39L433.95,303.98L434.49,307.14L435.03,305.56L436.11,304.77L436.65,305.56L437.19,304.77L437.74,306.35L438.28,305.56L438.82,307.14L440.44,304.77L440.98,305.56L442.06,307.14L442.61,277.83L443.69,307.14L444.23,275.46L444.77,297.64L445.31,295.26L445.85,271.5L446.39,281L446.93,279.42L447.47,260.41L448.02,285.76L448.56,276.25L449.1,275.46L449.64,261.99L450.18,286.55L450.72,287.34L451.26,258.82L452.34,294.47L452.89,288.92L453.43,291.3L453.97,288.92L454.51,291.3L455.05,290.51L455.59,289.72L456.13,289.72L456.67,290.51L457.21,290.51L457.76,291.3L459.38,285.76L459.92,290.51L460.46,289.72L461,269.91L461.54,290.51L462.08,261.99L462.63,288.13L463.17,283.38L463.71,277.04L464.25,290.51L464.79,273.08L465.33,289.72L465.87,287.34L466.41,291.3L466.95,289.72L467.49,290.51L468.04,289.72L468.58,287.34L469.12,289.72L469.66,285.76L470.74,289.72L471.28,258.03L472.36,288.92L472.91,287.34L473.99,288.13L474.53,284.96L475.61,286.55L476.15,286.55L476.69,284.96L477.23,286.55L477.78,285.76L478.32,264.37L478.86,270.7L479.4,218.42L480.48,288.13L481.02,285.76L481.56,251.69L482.1,276.25L483.19,286.55L483.73,281L484.81,288.13L485.35,287.34L485.89,288.13L486.43,284.96L486.97,285.76L487.52,284.96L488.6,283.38L489.14,285.76L489.68,285.76L490.22,284.96L490.76,284.17L491.3,286.55L491.84,278.63L492.38,241.39L492.93,281.79L493.47,281L494.01,282.59L494.55,285.76L495.09,265.95L495.63,282.59L496.17,267.54L496.71,281.79L497.25,278.63L497.8,285.76L498.88,283.38L499.42,283.38L499.96,282.59L500.5,286.55L501.04,284.96L501.58,271.5L502.67,286.55L503.21,284.96L503.75,286.55L504.29,284.17L504.83,284.96L505.37,284.17L505.91,283.38L506.45,284.17L507.54,282.59L508.08,282.59L508.62,279.42L509.16,283.38L510.24,281L510.78,281.79L511.32,261.2L511.86,279.42L512.4,279.42L512.95,281.79L513.49,280.21L514.03,281.79L514.57,281L515.11,284.96L516.19,281L516.73,281.79L517.27,284.96L517.82,280.21L519.44,282.59L519.98,282.59L520.52,241.39L521.06,283.38L523.23,281L523.77,281L524.31,250.11L524.85,281.79L525.39,280.21L525.93,281.79L526.47,281.79L527.01,282.59L527.56,281.79L528.1,278.63L528.64,281L529.18,280.21L529.72,280.21L530.8,283.38L531.34,282.59L531.88,281L532.42,281.79L533.51,282.59L534.05,281L534.59,282.59L535.13,278.63L535.67,282.59L536.21,247.73L536.75,283.38L537.29,281.79L537.84,281.79L538.92,283.38L539.46,281L540,283.38" style="vector-effect: none; fill: none; stroke: rgb(99, 110, 250); stroke-opacity: 1; stroke-width: 2px; opacity: 1;"/></g><g class="points"/><g class="text"/></g></g></g></g><path class="xlines-above crisp" d="M0,0" style="fill: none;"/><path class="ylines-above crisp" d="M0,0" style="fill: none;"/><g class="overlines-above"/><g class="xaxislayer-above"><g class="xtick"><text text-anchor="middle" x="0" y="433" transform="translate(80,0)" style="font-family: 'Open Sans', verdana, arial, sans-serif; font-size: 12px; fill: rgb(42, 63, 95); fill-opacity: 1; white-space: pre; opacity: 1;">0</text></g><g class="xtick"><text text-anchor="middle" x="0" y="433" style="font-family: 'Open Sans', verdana, arial, sans-serif; font-size: 12px; fill: rgb(42, 63, 95); fill-opacity: 1; white-space: pre; opacity: 1;" transform="translate(188.22,0)">200</text></g><g class="xtick"><text text-anchor="middle" x="0" y="433" style="font-family: 'Open Sans', verdana, arial, sans-serif; font-size: 12px; fill: rgb(42, 63, 95); fill-opacity: 1; white-space: pre; opacity: 1;" transform="translate(296.43,0)">400</text></g><g class="xtick"><text text-anchor="middle" x="0" y="433" style="font-family: 'Open Sans', verdana, arial, sans-serif; font-size: 12px; fill: rgb(42, 63, 95); fill-opacity: 1; white-space: pre; opacity: 1;" transform="translate(404.65,0)">600</text></g><g class="xtick"><text text-anchor="middle" x="0" y="433" style="font-family: 'Open Sans', verdana, arial, sans-serif; font-size: 12px; fill: rgb(42, 63, 95); fill-opacity: 1; white-space: pre; opacity: 1;" transform="translate(512.87,0)">800</text></g></g><g class="yaxislayer-above"><g class="ytick"><text text-anchor="end" x="79" y="4.199999999999999" transform="translate(0,384.57)" style="font-family: 'Open Sans', verdana, arial, sans-serif; font-size: 12px; fill: rgb(42, 63, 95); fill-opacity: 1; white-space: pre; opacity: 1;">5k</text></g><g class="ytick"><text text-anchor="end" x="79" y="4.199999999999999" style="font-family: 'Open Sans', verdana, arial, sans-serif; font-size: 12px; fill: rgb(42, 63, 95); fill-opacity: 1; white-space: pre; opacity: 1;" transform="translate(0,344.96)">10k</text></g><g class="ytick"><text text-anchor="end" x="79" y="4.199999999999999" style="font-family: 'Open Sans', verdana, arial, sans-serif; font-size: 12px; fill: rgb(42, 63, 95); fill-opacity: 1; white-space: pre; opacity: 1;" transform="translate(0,305.35)">15k</text></g><g class="ytick"><text text-anchor="end" x="79" y="4.199999999999999" style="font-family: 'Open Sans', verdana, arial, sans-serif; font-size: 12px; fill: rgb(42, 63, 95); fill-opacity: 1; white-space: pre; opacity: 1;" transform="translate(0,265.75)">20k</text></g><g class="ytick"><text text-anchor="end" x="79" y="4.199999999999999" style="font-family: 'Open Sans', verdana, arial, sans-serif; font-size: 12px; fill: rgb(42, 63, 95); fill-opacity: 1; white-space: pre; opacity: 1;" transform="translate(0,226.14)">25k</text></g><g class="ytick"><text text-anchor="end" x="79" y="4.199999999999999" style="font-family: 'Open Sans', verdana, arial, sans-serif; font-size: 12px; fill: rgb(42, 63, 95); fill-opacity: 1; white-space: pre; opacity: 1;" transform="translate(0,186.53)">30k</text></g><g class="ytick"><text text-anchor="end" x="79" y="4.199999999999999" style="font-family: 'Open Sans', verdana, arial, sans-serif; font-size: 12px; fill: rgb(42, 63, 95); fill-opacity: 1; white-space: pre; opacity: 1;" transform="translate(0,146.92000000000002)">35k</text></g><g class="ytick"><text text-anchor="end" x="79" y="4.199999999999999" style="font-family: 'Open Sans', verdana, arial, sans-serif; font-size: 12px; fill: rgb(42, 63, 95); fill-opacity: 1; white-space: pre; opacity: 1;" transform="translate(0,107.31)">40k</text></g><g class="ytick"><text text-anchor="end" x="79" y="4.199999999999999" style="font-family: 'Open Sans', verdana, arial, sans-serif; font-size: 12px; fill: rgb(42, 63, 95); fill-opacity: 1; white-space: pre; opacity: 1;" transform="translate(0,67.7)">45k</text></g></g><g class="overaxes-above"/></g></g><g class="polarlayer"/><g class="smithlayer"/><g class="ternarylayer"/><g class="geolayer"/><g class="funnelarealayer"/><g class="pielayer"/><g class="iciclelayer"/><g class="treemaplayer"/><g class="sunburstlayer"/><g class="glimages"/><defs id="topdefs-32c131"><g class="clips"/></defs><g class="layer-above"><g class="imagelayer"/><g class="shapelayer"/></g><g class="infolayer"><g class="g-gtitle"/><g class="g-xtitle"><text class="xtitle" x="350" y="460.3" text-anchor="middle" style="opacity: 1; font-family: 'Open Sans', verdana, arial, sans-serif; font-size: 14px; fill: rgb(42, 63, 95); fill-opacity: 1; white-space: pre;">edge</text></g><g class="g-ytitle"><text class="ytitle" transform="rotate(-90,37.240625,240)" x="37.240625" y="240" text-anchor="middle" style="opacity: 1; font-family: 'Open Sans', verdana, arial, sans-serif; font-size: 14px; fill: rgb(42, 63, 95); fill-opacity: 1; white-space: pre;">time [ns]</text></g></g></svg>