<svg class="main-svg" xmlns="http://www.w3.org/2000/svg" xmlns:xlink="http://www.w3.org/1999/xlink" width="700" height="500" style="" viewBox="0 0 700 500"><rect x="0" y="0" width="700" height="500" style="fill: rgb(255, 255, 255); fill-opacity: 1;"/><defs id="defs-97230f"><g class="clips"><clipPath id="clip97230fxyplot" class="plotclip"><rect width="540" height="320"/></clipPath><clipPath class="axesclip" id="clip97230fx"><rect x="80" y="0" width="540" height="500"/></clipPath><clipPath class="axesclip" id="clip97230fy"><rect x="0" y="100" width="700" height="320"/></clipPath><clipPath class="axesclip" id="clip97230fxy"><rect x="80" y="100" width="540" height="320"/></clipPath></g><g class="gradients"/><g class="patterns"/></defs><g class="bglayer"><rect class="bg" x="80" y="100" width="540" height="320" style="fill: rgb(229, 236, 246); fill-opacity: 1; stroke-width: 0;"/></g><g class="layer-below"><g class="imagelayer"/><g class="shapelayer"/></g><g class="cartesianlayer"><g class="subplot xy"><g class="layer-subplot"><g class="shapelayer"/><g class="imagelayer"/></g><g class="minor-gridlayer"><g class="x"/><g class="y"/></g><g class="gridlayer"><g class="x"><path class="xgrid crisp" transform="translate(188.22,0)" d="M0,100v320" style="stroke: rgb(255, 255, 255); stroke-opacity: 1; stroke-width: 1px;"/><path class="xgrid crisp" transform="translate(296.43,0)" d="M0,100v320" style="stroke: rgb(255, 255, 255); stroke-opacity: 1; stroke-width: 1px;"/><path class="xgrid crisp" transform="translate(404.65,0)" d="M0,100v320" style="stroke: rgb(255, 255, 255); stroke-opacity: 1; stroke-width: 1px;"/><path class="xgrid crisp" transform="translate(512.87,0)" d="M0,100v320" style="stroke: rgb(255, 255, 255); stroke-opacity: 1; stroke-width: 1px;"/></g><g class="y"><path class="ygrid crisp" transform="translate(0,339.82)" d="M80,0h540" style="stroke: rgb(255, 255, 255); stroke-opacity: 1; stroke-width: 1px;"/><path class="ygrid crisp" transform="translate(0,275.5)" d="M80,0h540" style="stroke: rgb(255, 255, 255); stroke-opacity: 1; stroke-width: 1px;"/><path class="ygrid crisp" transform="translate(0,211.19)" d="M80,0h540" style="stroke: rgb(255, 255, 255); stroke-opacity: 1; stroke-width: 1px;"/><path class="ygrid crisp" transform="translate(0,146.87)" d="M80,0h540" style="stroke: rgb(255, 255, 255); stroke-opacity: 1; stroke-width: 1px;"/></g></g><g class="zerolinelayer"><path class="xzl zl crisp" transform="translate(80,0)" d="M0,100v320" style="stroke: rgb(255, 255, 255); stroke-opacity: 1; stroke-width: 2px;"/><path class="yzl zl crisp" transform="translate(0,404.14)" d="M80,0h540" style="stroke: rgb(255, 255, 255); stroke-opacity: 1; stroke-width: 2px;"/></g><g class="layer-between"><g class="shapelayer"/><g class="imagelayer"/></g><path class="xlines-below"/><path class="ylines-below"/><g class="overlines-below"/><g class="xaxislayer-below"/><g class="yaxislayer-below"/><g class="overaxes-below"/><g class="overplot"><g class="xy" transform="translate(80,100)" clip-path="url(#clip97230fxyplot)"><g class="scatterlayer mlayer"><g class="trace scatter trace20f5b3" style="stroke-miterlimit: 2; opacity: 1;"><g class="fills"/><g class="errorbars"/><g class="lines"><path class="js-line" d="M0,16L1.08,264.26L1.62,277.45L3.79,291.11L4.33,291.42L4.87,290.5L5.41,292.21L7.03,294.31L7.58,295.05L9.74,295.61L10.28,295.2L11.36,293.67L11.9,295.92L14.61,296.37L15.15,296.82L17.31,296.61L17.86,296.72L20.02,297.13L20.56,296.65L22.18,296.82L22.73,295.43L23.81,297.51L24.35,297.57L33.55,299.28L34.09,299.31L38.96,299.68L39.5,296.35L40.58,299.91L41.12,299.88L41.66,296.65L42.2,299.74L49.24,300.35L49.78,300.35L64.93,301.17L65.47,287.66L66.55,302.86L67.09,302.81L68.18,301.47L68.72,302.9L70.34,302.81L70.88,297.03L71.96,302.85L72.51,302.97L77.92,303.4L78.46,303.44L82.79,303.32L83.33,298.2L84.41,300.88L84.95,298.09L86.03,303.57L86.57,303.59L92.53,303.18L93.07,303.13L100.64,303.68L101.18,302.99L102.26,301.83L102.81,301.89L103.89,301.8L104.43,302.47L106.05,302.88L106.59,302.86L117.96,302.98L118.5,302.99L132.57,303.15L133.11,301.8L134.19,303.17L134.73,303.16L142.3,303.17L142.85,303.17L146.09,303L146.63,302.65L149.88,302.59L150.42,302.65L155.83,302.98L156.37,303.29L157.45,302.82L158,302.75L159.08,300.23L159.62,302.41L160.7,303.55L161.24,303.55L175.31,303.61L175.85,301.68L176.93,302.66L177.47,302.77L178.56,303.53L179.1,303.56L179.64,301.77L180.18,303.4L182.34,303.56L182.89,302.71L183.97,303.7L184.51,303.71L187.21,303.69L187.76,302.63L188.3,303.53L188.84,302.34L191.54,302.75L192.08,302.52L194.79,302.86L195.33,302.76L198.58,302.9L199.12,302.9L205.07,302.84L205.61,301.49L206.69,302.84L207.23,302.86L208.86,302.87L209.4,302.88L215.35,302.97L215.89,303.02L220.22,302.96L220.76,303L224.01,303.01L224.55,301.22L225.63,303L226.17,303.02L227.8,303.74L228.34,303.83L235.37,303.01L235.91,301.75L236.99,303.16L237.54,303.09L242.4,303.1L242.95,303.08L262.42,303.19L262.97,301.82L264.05,303.19L264.59,303.15L268.92,303.13L269.46,296.67L270.54,303.33L271.08,303.43L285.15,303.48L285.69,303.46L288.4,303.49L288.94,302.56L290.02,303.48L290.56,303.48L336.01,303.58L336.55,303.57L342.51,303.28L343.05,302.24L344.67,303.37L345.21,303.37L352.79,303.85L353.33,303.55L354.95,303.54L355.49,302.22L357.11,303.89L357.66,303.88L361.44,303.85L361.98,302.99L362.53,302.7L363.07,303.3L367.94,303.41L368.48,303.42L372.26,303.47L372.81,302.43L373.89,303.44L374.43,303.44L374.97,301.82L375.51,303.45L382.55,303.44L383.09,301.04L384.17,303.43L384.71,303.44L385.79,303.44L386.33,302.36L387.41,303.46L387.96,303.45L390.12,303.45L390.66,302.66L391.2,303.46L391.74,302.21L392.83,303.43L393.37,303.44L400.94,303.47L401.48,300.45L402.57,303.66L403.11,303.05L404.19,303.66L404.73,303.66L418.26,303.52L418.8,303.64L419.88,303.73L420.42,303.51L423.13,303.68L423.67,303.62L425.29,303.23L425.83,303.59L430.7,303.69L431.24,303.7L456.13,303.72L456.67,303.72L501.04,303.13L501.58,303.95L502.67,303L503.21,303.93L512.95,303.97L513.49,302.89L514.57,303.99L515.11,303.99L538.38,303.73L538.92,303.24L540,303.99" style="vector-effect: none; fill: none; stroke: rgb(99, 110, 250); stroke-opacity: 1; stroke-width: 2px; opacity: 1;"/></g><g class="points"/><g class="text"/></g></g></g></g><path class="xlines-above crisp" d="M0,0" style="fill: none;"/><path class="ylines-above crisp" d="M0,0" style="fill: none;"/><g class="overlines-above"/><g class="xaxislayer-above"><g class="xtick"><text text-anchor="middle" x="0" y="433" transform="translate(80,0)" style="font-family: 'Open Sans', verdana, arial, sans-serif; font-size: 12px; fill: rgb(42, 63, 95); fill-opacity: 1; white-space: pre; opacity: 1;">0</text></g><g class="xtick"><text text-anchor="middle" x="0" y="433" style="font-family: 'Open Sans', verdana, arial, sans-serif; font-size: 12px; fill: rgb(42, 63, 95); fill-opacity: 1; white-space: pre; opacity: 1;" transform="translate(188.22,0)">200</text></g><g class="xtick"><text text-anchor="middle" x="0" y="433" style="font-family: 'Open Sans', verdana, arial, sans-serif; font-size: 12px; fill: rgb(42, 63, 95); fill-opacity: 1; white-space: pre; opacity: 1;" transform="translate(296.43,0)">400</text></g><g class="xtick"><text text-anchor="middle" x="0" y="433" style="font-family: 'Open Sans', verdana, arial, sans-serif; font-size: 12px; fill: rgb(42, 63, 95); fill-opacity: 1; white-space: pre; opacity: 1;" transform="translate(404.65,0)">600</text></g><g class="xtick"><text text-anchor="middle" x="0" y="433" style="font-family: 'Open Sans', verdana, arial, sans-serif; font-size: 12px; fill: rgb(42, 63, 95); fill-opacity: 1; white-space: pre; opacity: 1;" transform="translate(512.87,0)">800</text></g></g><g class="yaxislayer-above"><g class="ytick"><text text-anchor="end" x="79" y="4.199999999999999" transform="translate(0,404.14)" style="font-family: 'Open Sans', verdana, arial, sans-serif; font-size: 12px; fill: rgb(42, 63, 95); fill-opacity: 1; white-space: pre; opacity: 1;">0</text></g><g class="ytick"><text text-anchor="end" x="79" y="4.199999999999999" style="font-family: 'Open Sans', verdana, arial, sans-serif; font-size: 12px; fill: rgb(42, 63, 95); fill-opacity: 1; white-space: pre; opacity: 1;" transform="translate(0,339.82)">5μ</text></g><g class="ytick"><text text-anchor="end" x="79" y="4.199999999999999" style="font-family: 'Open Sans', verdana, arial, sans-serif; font-size: 12px; fill: rgb(42, 63, 95); fill-opacity: 1; white-space: pre; opacity: 1;" transform="translate(0,275.5)">10μ</text></g><g class="ytick"><text text-anchor="end" x="79" y="4.199999999999999" style="font-family: 'Open Sans', verdana, arial, sans-serif; font-size: 12px; fill: rgb(42, 63, 95); fill-opacity: 1; white-space: pre; opacity: 1;" transform="translate(0,211.19)">15μ</text></g><g class="ytick"><text text-anchor="end" x="79" y="4.199999999999999" style="font-family: 'Open Sans', verdana, arial, sans-serif; font-size: 12px; fill: rgb(42, 63, 95); fill-opacity: 1; white-space: pre; opacity: 1;" transform="translate(0,146.87)">20μ</text></g></g><g class="overaxes-above"/></g></g><g class="polarlayer"/><g class="smithlayer"/><g class="ternarylayer"/><g class="geolayer"/><g class="funnelarealayer"/><g class="pielayer"/><g class="iciclelayer"/><g class="treemaplayer"/><g class="sunburstlayer"/><g class="glimages"/><defs id="topdefs-97230f"><g class="clips"/></defs><g class="layer-above"><g class="imagelayer"/><g class="shapelayer"/></g><g class="infolayer"><g class="g-gtitle"><text class="gtitle" x="35" y="50" text-anchor="start" dy="0em" style="opacity: 1; font-family: 'Open Sans', verdana, arial, sans-serif; font-size: 17px; fill: rgb(42, 63, 95); fill-opacity: 1; white-space: pre;">Average property time per edge</text></g><g class="g-xtitle"><text class="xtitle" x="350" y="460.3" text-anchor="middle" style="opacity: 1; font-family: 'Open Sans', verdana, arial, sans-serif; font-size: 14px; fill: rgb(42, 63, 95); fill-opacity: 1; white-space: pre;">index</text></g><g class="g-ytitle"><text class="ytitle" transform="rotate(-90,36.6625,260)" x="36.6625" y="260" text-anchor="middle" style="opacity: 1; font-family: 'Open Sans', verdana, arial, sans-serif; font-size: 14px; fill: rgb(42, 63, 95); fill-opacity: 1; white-space: pre;">time</text></g></g></svg>