<svg class="main-svg" xmlns="http://www.w3.org/2000/svg" xmlns:xlink="http://www.w3.org/1999/xlink" width="700" height="500" style="" viewBox="0 0 700 500"><rect x="0" y="0" width="700" height="500" style="fill: rgb(255, 255, 255); fill-opacity: 1;"/><defs id="defs-bf0996"><g class="clips"><clipPath id="clipbf0996xyplot" class="plotclip"><rect width="540" height="320"/></clipPath><clipPath class="axesclip" id="clipbf0996x"><rect x="80" y="0" width="540" height="500"/></clipPath><clipPath class="axesclip" id="clipbf0996y"><rect x="0" y="100" width="700" height="320"/></clipPath><clipPath class="axesclip" id="clipbf0996xy"><rect x="80" y="100" width="540" height="320"/></clipPath></g><g class="gradients"/><g class="patterns"/></defs><g class="bglayer"><rect class="bg" x="80" y="100" width="540" height="320" style="fill: rgb(229, 236, 246); fill-opacity: 1; stroke-width: 0;"/></g><g class="layer-below"><g class="imagelayer"/><g class="shapelayer"/></g><g class="cartesianlayer"><g class="subplot xy"><g class="layer-subplot"><g class="shapelayer"/><g class="imagelayer"/></g><g class="minor-gridlayer"><g class="x"/><g class="y"/></g><g class="gridlayer"><g class="x"><path class="xgrid crisp" transform="translate(188.22,0)" d="M0,100v320" style="stroke: rgb(255, 255, 255); stroke-opacity: 1; stroke-width: 1px;"/><path class="xgrid crisp" transform="translate(296.43,0)" d="M0,100v320" style="stroke: rgb(255, 255, 255); stroke-opacity: 1; stroke-width: 1px;"/><path class="xgrid crisp" transform="translate(404.65,0)" d="M0,100v320" style="stroke: rgb(255, 255, 255); stroke-opacity: 1; stroke-width: 1px;"/><path class="xgrid crisp" transform="translate(512.87,0)" d="M0,100v320" style="stroke: rgb(255, 255, 255); stroke-opacity: 1; stroke-width: 1px;"/></g><g class="y"><path class="ygrid crisp" transform="translate(0,392.18)" d="M80,0h540" style="stroke: rgb(255, 255, 255); stroke-opacity: 1; stroke-width: 1px;"/><path class="ygrid crisp" transform="translate(0,355.26)" d="M80,0h540" style="stroke: rgb(255, 255, 255); stroke-opacity: 1; stroke-width: 1px;"/><path class="ygrid crisp" transform="translate(0,318.34000000000003)" d="M80,0h540" style="stroke: rgb(255, 255, 255); stroke-opacity: 1; stroke-width: 1px;"/><path class="ygrid crisp" transform="translate(0,281.41999999999996)" d="M80,0h540" style="stroke: rgb(255, 255, 255); stroke-opacity: 1; stroke-width: 1px;"/><path class="ygrid crisp" transform="translate(0,244.49)" d="M80,0h540" style="stroke: rgb(255, 255, 255); stroke-opacity: 1; stroke-width: 1px;"/><path class="ygrid crisp" transform="translate(0,207.57)" d="M80,0h540" style="stroke: rgb(255, 255, 255); stroke-opacity: 1; stroke-width: 1px;"/><path class="ygrid crisp" transform="translate(0,170.65)" d="M80,0h540" style="stroke: rgb(255, 255, 255); stroke-opacity: 1; stroke-width: 1px;"/><path class="ygrid crisp" transform="translate(0,133.72)" d="M80,0h540" style="stroke: rgb(255, 255, 255); stroke-opacity: 1; stroke-width: 1px;"/></g></g><g class="zerolinelayer"><path class="xzl zl crisp" transform="translate(80,0)" d="M0,100v320" style="stroke: rgb(255, 255, 255); stroke-opacity: 1; stroke-width: 2px;"/></g><g class="layer-between"><g class="shapelayer"/><g class="imagelayer"/></g><path class="xlines-below"/><path class="ylines-below"/><g class="overlines-below"/><g class="xaxislayer-below"/><g class="yaxislayer-below"/><g class="overaxes-below"/><g class="overplot"><g class="xy" transform="translate(80,100)" clip-path="url(#clipbf0996xyplot)"><g class="scatterlayer mlayer"><g class="trace scatter tracece2faf" style="stroke-miterlimit: 2; opacity: 1;"><g class="fills"/><g class="errorbars"/><g class="lines"><path class="js-line" d="M0,287.75L0.54,291.45L1.08,303.26L1.62,304L2.16,299.57L2.71,301.05L3.25,298.83L3.79,295.14L4.33,270.03L5.41,293.66L5.95,289.97L6.49,290.71L7.03,289.97L7.58,290.71L8.12,287.75L10.82,278.89L11.36,272.98L11.9,278.15L12.44,277.42L12.99,275.94L13.53,250.83L14.07,271.51L14.61,272.25L15.15,270.77L15.69,267.82L16.23,249.35L17.31,263.38L17.86,261.91L18.4,253.05L18.94,255.26L19.48,256.74L20.56,250.09L21.1,250.09L22.18,242.71L22.73,230.15L23.81,246.4L24.35,250.09L25.97,247.14L26.51,224.25L27.05,248.62L27.6,247.88L28.14,250.09L28.68,244.92L29.22,247.14L30.3,247.88L30.84,246.4L33.01,248.62L33.55,245.66L34.09,245.66L34.63,243.45L35.71,244.92L36.25,243.45L36.79,245.66L37.33,242.71L38.42,244.18L38.96,239.75L39.5,244.18L40.04,238.28L40.58,239.02L41.12,236.8L42.2,233.85L42.75,233.11L43.29,228.68L43.83,230.89L44.91,231.63L45.45,230.89L45.99,231.63L46.53,229.42L47.62,191.02L48.16,225.72L49.78,230.89L50.32,229.42L50.86,233.11L51.4,230.89L52.48,230.89L53.03,232.37L54.11,230.15L54.65,231.63L55.19,229.42L55.73,232.37L56.27,232.37L56.81,228.68L57.9,231.63L58.44,231.63L59.52,231.63L60.06,235.32L61.14,230.89L61.68,231.63L62.77,230.89L63.31,236.06L63.85,233.11L64.39,234.58L65.47,231.63L66.01,233.11L66.55,235.32L67.09,230.89L68.72,232.37L69.26,231.63L69.8,231.63L70.34,221.29L71.42,232.37L71.96,230.89L73.05,232.37L73.59,230.15L74.13,234.58L74.67,231.63L75.21,234.58L75.75,232.37L76.83,231.63L77.37,229.42L78.46,230.89L79,233.11L80.08,230.89L80.62,233.11L81.16,215.38L81.7,231.63L82.24,231.63L82.79,213.17L83.87,233.11L84.41,235.32L84.95,230.89L85.49,235.32L86.03,234.58L86.57,236.06L87.66,234.58L88.2,235.32L89.28,234.58L89.82,235.32L90.36,235.32L90.9,233.85L91.98,235.32L92.53,234.58L93.07,235.32L93.61,233.85L94.69,234.58L95.23,235.32L95.77,234.58L96.31,230.89L97.94,233.85L98.48,233.85L99.56,233.11L100.1,233.85L100.64,233.11L101.18,235.32L102.26,233.11L102.81,233.85L103.35,233.85L103.89,232.37L104.97,234.58L105.51,233.11L107.13,236.06L107.68,234.58L108.76,234.58L109.3,236.06L109.84,235.32L110.38,236.8L111.46,234.58L112,235.32L112.55,235.32L113.09,233.11L114.17,236.06L114.71,235.32L115.25,233.11L115.79,235.32L116.33,233.85L116.87,234.58L117.41,231.63L117.96,235.32L119.04,233.85L119.58,235.32L120.66,235.32L121.2,66.95L122.28,234.58L122.83,233.85L123.91,233.85L124.45,217.6L124.99,235.32L125.53,233.85L126.07,233.85L127.15,234.58L127.7,234.58L128.78,235.32L129.32,234.58L130.94,234.58L131.48,236.8L132.02,233.85L132.57,234.58L133.11,234.58L133.65,233.85L134.19,235.32L135.81,234.58L136.35,233.85L136.89,235.32L137.43,233.85L139.06,234.58L139.6,235.32L140.68,233.85L141.22,230.15L142.3,235.32L142.85,234.58L143.93,233.85L144.47,232.37L145.01,235.32L145.55,234.58L146.09,235.32L146.63,236.06L147.17,233.85L150.96,234.58L151.5,236.06L152.59,234.58L153.13,235.32L153.67,233.85L154.21,234.58L154.75,235.32L155.29,234.58L155.83,232.37L156.37,233.85L156.91,234.58L157.45,233.11L159.08,234.58L159.62,234.58L163.95,234.58L164.49,232.37L166.11,236.06L166.65,196.92L167.74,234.58L168.28,232.37L168.82,234.58L169.36,232.37L169.9,234.58L170.44,233.11L171.52,234.58L172.06,233.85L173.15,234.58L173.69,235.32L174.77,235.32L175.31,233.85L175.85,233.85L176.39,232.37L176.93,234.58L177.47,232.37L178.56,235.32L179.1,233.85L179.64,232.37L180.18,233.11L180.72,234.58L181.26,233.85L181.8,233.11L182.34,233.85L183.43,234.58L183.97,233.11L185.05,235.32L185.59,234.58L186.67,233.11L187.21,233.85L188.3,235.32L188.84,235.32L189.38,216.86L189.92,235.32L190.46,235.32L191,230.89L192.08,234.58L192.63,232.37L193.71,235.32L194.25,234.58L194.79,236.06L195.33,232.37L196.41,233.85L196.95,234.58L197.49,230.89L198.04,235.32L198.58,236.06L199.12,233.85L200.2,236.06L200.74,236.06L202.36,233.11L202.91,236.06L203.99,234.58L204.53,235.32L205.61,233.85L206.15,236.8L206.69,219.08L207.23,236.06L207.78,233.11L208.32,234.58L209.94,233.85L210.48,231.63L211.56,233.85L212.1,233.11L213.19,235.32L213.73,234.58L214.81,233.85L215.35,234.58L215.89,236.06L216.43,234.58L216.97,233.85L217.52,235.32L218.06,235.32L218.6,233.85L220.22,235.32L220.76,233.85L221.3,236.06L221.84,234.58L223.47,236.8L224.01,235.32L224.55,234.58L225.09,237.54L225.63,233.11L226.17,236.06L226.71,233.85L227.25,216.86L228.34,235.32L228.88,234.58L229.42,236.06L229.96,233.85L230.5,234.58L231.04,233.85L231.58,231.63L232.12,234.58L232.67,236.06L233.21,234.58L234.29,234.58L234.83,233.11L235.91,235.32L236.45,233.11L237.54,237.54L238.08,236.8L239.16,234.58L239.7,230.15L240.24,229.42L240.78,231.63L241.86,230.15L242.4,230.89L242.95,214.65L243.49,230.89L244.57,227.2L245.11,228.68L247.27,234.58L247.82,233.85L248.9,234.58L249.44,234.58L249.98,236.06L250.52,234.58L251.06,233.11L251.6,233.85L252.69,234.58L253.23,202.09L253.77,191.02L254.31,234.58L254.85,233.85L255.39,235.32L255.93,234.58L256.47,236.06L257.01,233.85L257.56,234.58L258.1,234.58L258.64,233.11L259.18,234.58L260.26,233.85L260.8,236.06L262.97,233.11L263.51,234.58L265.13,235.32L265.67,233.11L267.29,236.06L267.84,216.86L268.92,236.8L269.46,236.06L270,237.54L270.54,236.06L271.08,235.32L271.62,231.63L272.16,236.06L272.71,233.85L273.25,229.42L273.79,234.58L274.33,229.42L274.87,233.85L275.95,234.58L276.49,233.85L277.58,234.58L278.12,233.85L278.66,234.58L279.2,232.37L280.28,234.58L280.82,234.58L281.36,234.58L281.9,230.89L282.99,235.32L283.53,235.32L284.07,234.58L284.61,235.32L286.23,233.11L286.77,235.32L287.86,233.85L288.4,234.58L288.94,236.06L289.48,233.85L291.1,236.06L291.64,234.58L293.81,235.32L294.35,232.37L294.89,215.38L295.43,232.37L297.05,233.85L297.6,233.11L298.14,233.85L298.68,233.11L300.3,233.85L300.84,234.58L304.09,235.32L304.63,237.54L305.71,235.32L306.25,235.32L306.79,236.06L307.33,233.85L307.88,234.58L308.42,233.11L309.5,233.85L310.04,230.15L310.58,234.58L311.12,233.11L311.66,234.58L312.75,234.58L313.29,230.15L314.37,234.58L314.91,229.42L315.45,236.06L315.99,233.85L316.53,233.85L318.7,233.85L319.24,234.58L319.78,232.37L320.32,233.85L320.86,233.11L321.4,234.58L324.65,234.58L325.19,235.32L326.27,234.58L326.81,234.58L327.35,236.06L327.9,233.11L328.98,235.32L329.52,233.85L330.06,236.06L330.6,234.58L331.14,235.32L331.68,233.85L332.77,234.58L333.31,233.85L333.85,233.11L334.39,234.58L335.47,233.85L336.01,232.37L336.55,236.06L337.09,195.45L338.18,182.89L338.72,191.75L339.8,233.85L340.34,233.11L340.88,233.85L341.42,235.32L341.96,217.6L342.51,236.06L343.05,234.58L343.59,233.11L344.13,235.32L344.67,233.85L345.75,234.58L346.29,234.58L346.83,233.85L347.37,235.32L347.92,235.32L348.46,232.37L349.54,234.58L350.08,234.58L350.62,233.11L351.16,233.85L351.7,230.89L352.24,233.85L352.79,235.32L353.33,233.85L354.41,235.32L354.95,232.37L355.49,234.58L356.03,226.46L356.57,212.43L357.11,230.15L358.2,235.32L358.74,234.58L359.28,216.86L359.82,235.32L360.36,235.32L360.9,233.85L361.98,233.85L362.53,235.32L363.07,234.58L363.61,235.32L364.15,234.58L364.69,235.32L365.77,233.85L366.31,230.89L366.85,234.58L367.39,233.85L367.94,231.63L369.02,236.06L369.56,233.85L370.1,208L370.64,234.58L371.72,235.32L372.26,233.11L373.35,234.58L373.89,234.58L374.43,236.8L374.97,235.32L375.51,234.58L376.05,235.32L376.59,235.32L377.13,233.85L377.68,235.32L378.22,233.85L378.76,233.11L379.3,233.85L382,234.58L382.55,233.11L383.09,234.58L383.63,232.37L384.17,235.32L384.71,233.85L385.25,233.85L385.79,235.32L386.87,234.58L387.41,235.32L388.5,233.85L389.04,234.58L389.58,233.85L390.12,234.58L390.66,230.15L391.2,234.58L391.74,233.85L392.28,234.58L393.37,233.85L393.91,235.32L394.45,231.63L394.99,235.32L396.61,233.85L397.15,236.06L398.24,233.85L398.78,234.58L399.32,233.85L399.86,235.32L400.4,236.8L400.94,227.2L401.48,224.25L402.02,232.37L402.57,233.11L403.11,235.32L403.65,233.85L404.19,235.32L405.27,233.85L405.81,235.32L408.52,235.32L409.06,233.11L409.6,235.32L410.14,234.58L410.68,234.58L412.85,235.32L413.39,233.85L414.47,234.58L415.01,234.58L415.55,235.32L416.09,234.58L416.63,236.06L417.17,233.85L417.72,208.74L418.26,233.11L418.8,222.03L419.34,232.37L419.88,235.32L420.42,234.58L420.96,234.58L422.04,235.32L422.59,230.15L423.13,235.32L423.67,234.58L424.21,233.85L424.75,236.06L425.29,235.32L425.83,16L426.91,234.58L427.45,235.32L428,233.85L428.54,234.58L429.62,236.06L430.16,230.15L431.78,236.06L432.32,236.06L432.87,233.11L433.41,233.85L433.95,233.85L434.49,234.58L435.03,216.86L435.57,236.8L436.11,234.58L436.65,233.85L437.19,233.85L437.74,235.32L438.28,233.85L438.82,235.32L439.36,236.06L439.9,233.11L440.44,235.32L440.98,234.58L441.52,161.48L442.06,168.12L442.61,230.89L443.69,235.32L444.23,233.11L444.77,235.32L445.31,217.6L445.85,235.32L446.39,234.58L446.93,234.58L448.56,233.85L449.1,236.8L450.72,232.37L451.26,235.32L451.8,232.37L452.34,233.11L452.89,236.06L453.97,235.32L454.51,234.58L456.13,234.58L456.67,233.85L457.21,236.06L457.76,209.48L458.3,235.32L458.84,234.58L459.38,234.58L461,234.58L461.54,236.8L462.08,236.06L462.63,233.85L463.17,223.51L463.71,227.2L464.25,233.11L464.79,236.06L465.33,234.58L465.87,234.58L466.41,236.06L466.95,236.06L467.49,233.85L468.58,235.32L469.12,236.06L469.66,231.63L470.2,235.32L472.36,234.58L472.91,81.72L473.99,234.58L474.53,234.58L475.07,235.32L475.61,233.85L476.69,234.58L477.23,234.58L477.78,236.06L478.32,233.11L478.86,231.63L479.4,236.8L481.02,234.58L481.56,236.8L483.19,227.94L483.73,234.58L484.27,235.32L484.81,234.58L485.89,235.32L486.43,233.85L486.97,235.32L487.52,234.58L488.6,234.58L489.14,230.89L490.22,235.32L490.76,236.06L491.84,233.85L492.38,234.58L492.93,233.85L493.47,234.58L494.01,235.32L494.55,234.58L495.09,234.58L495.63,180.68L496.71,235.32L497.25,232.37L498.34,235.32L498.88,234.58L500.5,234.58L501.04,236.8L501.58,236.06L502.12,230.89L503.21,235.32L503.75,233.85L504.83,236.8L505.37,233.85L506.45,234.58L506.99,232.37L508.08,235.32L508.62,230.15L509.7,236.06L510.24,234.58L511.32,235.32L511.86,233.85L512.4,234.58L512.95,216.12L514.03,236.06L514.57,233.85L515.65,234.58L516.19,234.58L516.73,235.32L517.27,233.85L517.82,233.11L518.36,236.8L519.98,233.11L520.52,236.8L521.06,235.32L521.6,236.8L522.14,236.8L522.69,234.58L523.23,230.89L523.77,235.32L524.85,233.11L525.39,232.37L526.47,234.58L527.01,235.32L527.56,234.58L528.1,236.06L528.64,216.86L529.18,234.58L529.72,233.85L530.26,234.58L530.8,233.85L531.34,234.58L532.42,233.85L532.97,234.58L534.59,234.58L535.13,231.63L535.67,236.8L536.21,236.06L536.75,234.58L537.84,233.85L538.38,233.11L539.46,235.32L540,234.58" style="vector-effect: none; fill: none; stroke: rgb(99, 110, 250); stroke-opacity: 1; stroke-width: 2px; opacity: 1;"/></g><g class="points"/><g class="text"/></g></g></g></g><path class="xlines-above crisp" d="M0,0" style="fill: none;"/><path class="ylines-above crisp" d="M0,0" style="fill: none;"/><g class="overlines-above"/><g class="xaxislayer-above"><g class="xtick"><text text-anchor="middle" x="0" y="433" transform="translate(80,0)" style="font-family: 'Open Sans', verdana, arial, sans-serif; font-size: 12px; fill: rgb(42, 63, 95); fill-opacity: 1; white-space: pre; opacity: 1;">0</text></g><g class="xtick"><text text-anchor="middle" x="0" y="433" style="font-family: 'Open Sans', verdana, arial, sans-serif; font-size: 12px; fill: rgb(42, 63, 95); fill-opacity: 1; white-space: pre; opacity: 1;" transform="translate(188.22,0)">200</text></g><g class="xtick"><text text-anchor="middle" x="0" y="433" style="font-family: 'Open Sans', verdana, arial, sans-serif; font-size: 12px; fill: rgb(42, 63, 95); fill-opacity: 1; white-space: pre; opacity: 1;" transform="translate(296.43,0)">400</text></g><g class="xtick"><text text-anchor="middle" x="0" y="433" style="font-family: 'Open Sans', verdana, arial, sans-serif; font-size: 12px; fill: rgb(42, 63, 95); fill-opacity: 1; white-space: pre; opacity: 1;" transform="translate(404.65,0)">600</text></g><g class="xtick"><text text-anchor="middle" x="0" y="433" style="font-family: 'Open Sans', verdana, arial, sans-serif; font-size: 12px; fill: rgb(42, 63, 95); fill-opacity: 1; white-space: pre; opacity: 1;" transform="translate(512.87,0)">800</text></g></g><g class="yaxislayer-above"><g class="ytick"><text text-anchor="end" x="79" y="4.199999999999999" transform="translate(0,392.18)" style="font-family: 'Open Sans', verdana, arial, sans-serif; font-size: 12px; fill: rgb(42, 63, 95); fill-opacity: 1; white-space: pre; opacity: 1;">5k</text></g><g class="ytick"><text text-anchor="end" x="79" y="4.199999999999999" style="font-family: 'Open Sans', verdana, arial, sans-serif; font-size: 12px; fill: rgb(42, 63, 95); fill-opacity: 1; white-space: pre; opacity: 1;" transform="translate(0,355.26)">10k</text></g><g class="ytick"><text text-anchor="end" x="79" y="4.199999999999999" style="font-family: 'Open Sans', verdana, arial, sans-serif; font-size: 12px; fill: rgb(42, 63, 95); fill-opacity: 1; white-space: pre; opacity: 1;" transform="translate(0,318.34000000000003)">15k</text></g><g class="ytick"><text text-anchor="end" x="79" y="4.199999999999999" style="font-family: 'Open Sans', verdana, arial, sans-serif; font-size: 12px; fill: rgb(42, 63, 95); fill-opacity: 1; white-space: pre; opacity: 1;" transform="translate(0,281.41999999999996)">20k</text></g><g class="ytick"><text text-anchor="end" x="79" y="4.199999999999999" style="font-family: 'Open Sans', verdana, arial, sans-serif; font-size: 12px; fill: rgb(42, 63, 95); fill-opacity: 1; white-space: pre; opacity: 1;" transform="translate(0,244.49)">25k</text></g><g class="ytick"><text text-anchor="end" x="79" y="4.199999999999999" style="font-family: 'Open Sans', verdana, arial, sans-serif; font-size: 12px; fill: rgb(42, 63, 95); fill-opacity: 1; white-space: pre; opacity: 1;" transform="translate(0,207.57)">30k</text></g><g class="ytick"><text text-anchor="end" x="79" y="4.199999999999999" style="font-family: 'Open Sans', verdana, arial, sans-serif; font-size: 12px; fill: rgb(42, 63, 95); fill-opacity: 1; white-space: pre; opacity: 1;" transform="translate(0,170.65)">35k</text></g><g class="ytick"><text text-anchor="end" x="79" y="4.199999999999999" style="font-family: 'Open Sans', verdana, arial, sans-serif; font-size: 12px; fill: rgb(42, 63, 95); fill-opacity: 1; white-space: pre; opacity: 1;" transform="translate(0,133.72)">40k</text></g></g><g class="overaxes-above"/></g></g><g class="polarlayer"/><g class="smithlayer"/><g class="ternarylayer"/><g class="geolayer"/><g class="funnelarealayer"/><g class="pielayer"/><g class="iciclelayer"/><g class="treemaplayer"/><g class="sunburstlayer"/><g class="glimages"/><defs id="topdefs-bf0996"><g class="clips"/></defs><g class="layer-above"><g class="imagelayer"/><g class="shapelayer"/></g><g class="infolayer"><g class="g-gtitle"><text class="gtitle" x="35" y="50" text-anchor="start" dy="0em" style="opacity: 1; font-family: 'Open Sans', verdana, arial, sans-serif; font-size: 17px; fill: rgb(42, 63, 95); fill-opacity: 1; white-space: pre;">Average calculation time per edge</text></g><g class="g-xtitle"><text class="xtitle" x="350" y="460.3" text-anchor="middle" style="opacity: 1; font-family: 'Open Sans', verdana, arial, sans-serif; font-size: 14px; fill: rgb(42, 63, 95); fill-opacity: 1; white-space: pre;">edge</text></g><g class="g-ytitle"><text class="ytitle" transform="rotate(-90,37.240625,260)" x="37.240625" y="260" text-anchor="middle" style="opacity: 1; font-family: 'Open Sans', verdana, arial, sans-serif; font-size: 14px; fill: rgb(42, 63, 95); fill-opacity: 1; white-space: pre;">time [ns]</text></g></g></svg>