<svg class="main-svg" xmlns="http://www.w3.org/2000/svg" xmlns:xlink="http://www.w3.org/1999/xlink" width="700" height="500" style="" viewBox="0 0 700 500"><rect x="0" y="0" width="700" height="500" style="fill: rgb(255, 255, 255); fill-opacity: 1;"/><defs id="defs-674298"><g class="clips"><clipPath id="clip674298xyplot" class="plotclip"><rect width="540" height="320"/></clipPath><clipPath class="axesclip" id="clip674298x"><rect x="80" y="0" width="540" height="500"/></clipPath><clipPath class="axesclip" id="clip674298y"><rect x="0" y="100" width="700" height="320"/></clipPath><clipPath class="axesclip" id="clip674298xy"><rect x="80" y="100" width="540" height="320"/></clipPath></g><g class="gradients"/><g class="patterns"/></defs><g class="bglayer"><rect class="bg" x="80" y="100" width="540" height="320" style="fill: rgb(229, 236, 246); fill-opacity: 1; stroke-width: 0;"/></g><g class="layer-below"><g class="imagelayer"/><g class="shapelayer"/></g><g class="cartesianlayer"><g class="subplot xy"><g class="layer-subplot"><g class="shapelayer"/><g class="imagelayer"/></g><g class="minor-gridlayer"><g class="x"/><g class="y"/></g><g class="gridlayer"><g class="x"><path class="xgrid crisp" transform="translate(188.22,0)" d="M0,100v320" style="stroke: rgb(255, 255, 255); stroke-opacity: 1; stroke-width: 1px;"/><path class="xgrid crisp" transform="translate(296.43,0)" d="M0,100v320" style="stroke: rgb(255, 255, 255); stroke-opacity: 1; stroke-width: 1px;"/><path class="xgrid crisp" transform="translate(404.65,0)" d="M0,100v320" style="stroke: rgb(255, 255, 255); stroke-opacity: 1; stroke-width: 1px;"/><path class="xgrid crisp" transform="translate(512.87,0)" d="M0,100v320" style="stroke: rgb(255, 255, 255); stroke-opacity: 1; stroke-width: 1px;"/></g><g class="y"><path class="ygrid crisp" transform="translate(0,350.40999999999997)" d="M80,0h540" style="stroke: rgb(255, 255, 255); stroke-opacity: 1; stroke-width: 1px;"/><path class="ygrid crisp" transform="translate(0,296.52)" d="M80,0h540" style="stroke: rgb(255, 255, 255); stroke-opacity: 1; stroke-width: 1px;"/><path class="ygrid crisp" transform="translate(0,242.63)" d="M80,0h540" style="stroke: rgb(255, 255, 255); stroke-opacity: 1; stroke-width: 1px;"/><path class="ygrid crisp" transform="translate(0,188.75)" d="M80,0h540" style="stroke: rgb(255, 255, 255); stroke-opacity: 1; stroke-width: 1px;"/><path class="ygrid crisp" transform="translate(0,134.86)" d="M80,0h540" style="stroke: rgb(255, 255, 255); stroke-opacity: 1; stroke-width: 1px;"/></g></g><g class="zerolinelayer"><path class="xzl zl crisp" transform="translate(80,0)" d="M0,100v320" style="stroke: rgb(255, 255, 255); stroke-opacity: 1; stroke-width: 2px;"/><path class="yzl zl crisp" transform="translate(0,404.3)" d="M80,0h540" style="stroke: rgb(255, 255, 255); stroke-opacity: 1; stroke-width: 2px;"/></g><g class="layer-between"><g class="shapelayer"/><g class="imagelayer"/></g><path class="xlines-below"/><path class="ylines-below"/><g class="overlines-below"/><g class="xaxislayer-below"/><g class="yaxislayer-below"/><g class="overaxes-below"/><g class="overplot"><g class="xy" transform="translate(80,100)" clip-path="url(#clip674298xyplot)"><g class="scatterlayer mlayer"><g class="trace scatter trace868fad" style="stroke-miterlimit: 2; opacity: 1;"><g class="fills"/><g class="errorbars"/><g class="lines"><path class="js-line" d="M0,16L1.08,267.47L1.62,279.37L3.25,289.67L3.79,291.5L4.87,213.77L5.41,287.64L5.95,293.52L6.49,293.1L7.03,294.1L8.66,295.9L9.2,260.14L10.28,294.73L10.82,295.32L11.36,293.03L11.9,296.45L15.15,296.96L15.69,296.93L17.86,297.24L18.4,297.21L18.94,296.81L19.48,277.13L20.02,296.99L20.56,292.48L21.1,298.5L21.64,289.9L22.18,298.27L22.73,296.09L23.27,298.42L24.35,298.5L24.89,298.51L27.6,299.68L28.14,299.06L29.22,299.54L29.76,299.29L36.25,299.94L36.79,300.08L38.96,300.05L39.5,300.33L42.75,300.59L43.29,300.07L43.83,299.79L44.37,297.45L44.91,301.09L45.45,300.97L45.99,272.97L47.07,301.08L47.62,300.72L49.24,301.02L49.78,300.62L51.4,300.84L51.94,300.82L53.57,301.41L54.11,299.23L55.19,301.21L55.73,301.34L57.35,301.55L57.9,301.6L69.8,302.12L70.34,300.39L71.42,302.23L71.96,302.23L74.67,302.32L75.21,300.76L75.75,302.39L76.29,302.04L76.83,302.22L82.24,302.22L82.79,300.45L83.87,302.28L84.41,302.29L84.95,301.04L85.49,302.4L89.82,302.54L90.36,302.47L96.31,302.55L96.85,301.48L97.94,302.56L98.48,302.63L101.18,302.73L101.72,302.63L104.43,302.74L104.97,302.25L105.51,302.65L106.05,301.66L106.59,301.03L107.13,302.7L112.55,302.83L113.09,302.73L113.63,301.28L114.17,302.67L117.96,302.86L118.5,302.66L123.37,302.72L123.91,301.4L124.99,302.81L125.53,302.86L129.86,302.79L130.4,302.79L134.19,302.91L134.73,301.79L135.81,302.95L136.35,302.89L139.6,302.96L140.14,302.98L154.21,303.3L154.75,303.31L155.83,303.17L156.37,302.26L157.45,303.2L158,303.36L159.62,303.36L160.16,302.34L161.24,303.36L161.78,303.32L170.98,303.43L171.52,303.43L180.18,303.49L180.72,302.69L181.8,303.49L182.34,303.47L186.67,303.53L187.21,303.53L192.63,302.65L193.17,303.42L198.04,303.58L198.58,303.56L202.36,303.53L202.91,303.56L203.45,302.72L203.99,303.48L204.53,303.56L205.07,300.71L206.15,303.44L206.69,303.45L228.88,303.54L229.42,303.48L234.29,303.55L234.83,303.5L245.65,303.58L246.19,303.56L252.14,303.58L252.69,303.61L258.1,303.64L258.64,303.63L280.28,303.69L280.82,303.69L310.04,303.78L310.58,266.62L311.66,303.83L312.2,303.85L323.57,303.85L324.11,302.76L324.65,291.42L325.19,303.78L331.14,303.85L331.68,303.77L332.22,303.77L332.77,236.6L333.85,303.7L334.39,303.73L344.67,303.84L345.21,300.28L346.29,303.79L346.83,303.82L365.23,303.76L365.77,303.77L389.58,303.86L390.12,300.46L391.2,303.86L391.74,303.85L412.85,303.89L413.39,303.9L446.93,303.92L447.47,301.47L448.56,303.04L449.1,303.06L456.13,303.03L456.67,303.04L458.84,303.04L459.38,301.87L459.92,303.01L460.46,302.13L461.54,303.91L462.08,303.67L464.25,303.94L464.79,303.93L470.2,303.94L470.74,302.77L471.82,303.9L472.36,303.91L513.49,303.95L514.03,303.72L516.19,303.97L516.73,303.97L540,303.99" style="vector-effect: none; fill: none; stroke: rgb(99, 110, 250); stroke-opacity: 1; stroke-width: 2px; opacity: 1;"/></g><g class="points"/><g class="text"/></g></g></g></g><path class="xlines-above crisp" d="M0,0" style="fill: none;"/><path class="ylines-above crisp" d="M0,0" style="fill: none;"/><g class="overlines-above"/><g class="xaxislayer-above"><g class="xtick"><text text-anchor="middle" x="0" y="433" transform="translate(80,0)" style="font-family: 'Open Sans', verdana, arial, sans-serif; font-size: 12px; fill: rgb(42, 63, 95); fill-opacity: 1; white-space: pre; opacity: 1;">0</text></g><g class="xtick"><text text-anchor="middle" x="0" y="433" style="font-family: 'Open Sans', verdana, arial, sans-serif; font-size: 12px; fill: rgb(42, 63, 95); fill-opacity: 1; white-space: pre; opacity: 1;" transform="translate(188.22,0)">200</text></g><g class="xtick"><text text-anchor="middle" x="0" y="433" style="font-family: 'Open Sans', verdana, arial, sans-serif; font-size: 12px; fill: rgb(42, 63, 95); fill-opacity: 1; white-space: pre; opacity: 1;" transform="translate(296.43,0)">400</text></g><g class="xtick"><text text-anchor="middle" x="0" y="433" style="font-family: 'Open Sans', verdana, arial, sans-serif; font-size: 12px; fill: rgb(42, 63, 95); fill-opacity: 1; white-space: pre; opacity: 1;" transform="translate(404.65,0)">600</text></g><g class="xtick"><text text-anchor="middle" x="0" y="433" style="font-family: 'Open Sans', verdana, arial, sans-serif; font-size: 12px; fill: rgb(42, 63, 95); fill-opacity: 1; white-space: pre; opacity: 1;" transform="translate(512.87,0)">800</text></g></g><g class="yaxislayer-above"><g class="ytick"><text text-anchor="end" x="79" y="4.199999999999999" transform="translate(0,404.3)" style="font-family: 'Open Sans', verdana, arial, sans-serif; font-size: 12px; fill: rgb(42, 63, 95); fill-opacity: 1; white-space: pre; opacity: 1;">0</text></g><g class="ytick"><text text-anchor="end" x="79" y="4.199999999999999" style="font-family: 'Open Sans', verdana, arial, sans-serif; font-size: 12px; fill: rgb(42, 63, 95); fill-opacity: 1; white-space: pre; opacity: 1;" transform="translate(0,350.40999999999997)">2μ</text></g><g class="ytick"><text text-anchor="end" x="79" y="4.199999999999999" style="font-family: 'Open Sans', verdana, arial, sans-serif; font-size: 12px; fill: rgb(42, 63, 95); fill-opacity: 1; white-space: pre; opacity: 1;" transform="translate(0,296.52)">4μ</text></g><g class="ytick"><text text-anchor="end" x="79" y="4.199999999999999" style="font-family: 'Open Sans', verdana, arial, sans-serif; font-size: 12px; fill: rgb(42, 63, 95); fill-opacity: 1; white-space: pre; opacity: 1;" transform="translate(0,242.63)">6μ</text></g><g class="ytick"><text text-anchor="end" x="79" y="4.199999999999999" style="font-family: 'Open Sans', verdana, arial, sans-serif; font-size: 12px; fill: rgb(42, 63, 95); fill-opacity: 1; white-space: pre; opacity: 1;" transform="translate(0,188.75)">8μ</text></g><g class="ytick"><text text-anchor="end" x="79" y="4.199999999999999" style="font-family: 'Open Sans', verdana, arial, sans-serif; font-size: 12px; fill: rgb(42, 63, 95); fill-opacity: 1; white-space: pre; opacity: 1;" transform="translate(0,134.86)">10μ</text></g></g><g class="overaxes-above"/></g></g><g class="polarlayer"/><g class="smithlayer"/><g class="ternarylayer"/><g class="geolayer"/><g class="funnelarealayer"/><g class="pielayer"/><g class="iciclelayer"/><g class="treemaplayer"/><g class="sunburstlayer"/><g class="glimages"/><defs id="topdefs-674298"><g class="clips"/></defs><g class="layer-above"><g class="imagelayer"/><g class="shapelayer"/></g><g class="infolayer"><g class="g-gtitle"><text class="gtitle" x="35" y="50" text-anchor="start" dy="0em" style="opacity: 1; font-family: 'Open Sans', verdana, arial, sans-serif; font-size: 17px; fill: rgb(42, 63, 95); fill-opacity: 1; white-space: pre;">Average property time per edge</text></g><g class="g-xtitle"><text class="xtitle" x="350" y="460.3" text-anchor="middle" style="opacity: 1; font-family: 'Open Sans', verdana, arial, sans-serif; font-size: 14px; fill: rgb(42, 63, 95); fill-opacity: 1; white-space: pre;">index</text></g><g class="g-ytitle"><text class="ytitle" transform="rotate(-90,36.6625,260)" x="36.6625" y="260" text-anchor="middle" style="opacity: 1; font-family: 'Open Sans', verdana, arial, sans-serif; font-size: 14px; fill: rgb(42, 63, 95); fill-opacity: 1; white-space: pre;">time</text></g></g></svg>